<svg xmlns="http://www.w3.org/2000/svg" xmlns:xlink="http://www.w3.org/1999/xlink" width="1080" zoomAndPan="magnify" viewBox="0 0 810 809.999993" height="1080" preserveAspectRatio="xMidYMid meet" version="1.0"><defs><g/><clipPath id="d3cd4db3a6"><path d="M 361 269 L 447 269 L 447 383 L 361 383 Z M 361 269 " clip-rule="nonzero"/></clipPath><clipPath id="6ff7f38017"><path d="M 420.671875 269.144531 L 446.753906 284.886719 L 387.785156 382.59375 L 361.703125 366.851562 Z M 420.671875 269.144531 " clip-rule="nonzero"/></clipPath><clipPath id="f4c0da6c87"><path d="M 420.671875 269.144531 L 446.753906 284.886719 L 387.8125 382.550781 L 361.726562 366.808594 Z M 420.671875 269.144531 " clip-rule="nonzero"/></clipPath><clipPath id="9f01297b10"><path d="M 364 284 L 422 284 L 422 343 L 364 343 Z M 364 284 " clip-rule="nonzero"/></clipPath><clipPath id="da56f0b80f"><path d="M 386.304688 284.699219 L 421.84375 306.148438 L 399.976562 342.382812 L 364.433594 320.933594 Z M 386.304688 284.699219 " clip-rule="nonzero"/></clipPath><clipPath id="f2207e5532"><path d="M 386.304688 284.699219 L 421.84375 306.148438 L 399.992188 342.359375 L 364.449219 320.910156 Z M 386.304688 284.699219 " clip-rule="nonzero"/></clipPath><clipPath id="b4e2e14af2"><path d="M 406 288 L 462 288 L 462 343 L 406 343 Z M 406 288 " clip-rule="nonzero"/></clipPath><clipPath id="fbfb2e8338"><path d="M 425.542969 288.5625 L 461.171875 310.066406 L 441.652344 342.414062 L 406.019531 320.910156 Z M 425.542969 288.5625 " clip-rule="nonzero"/></clipPath><clipPath id="46e6644593"><path d="M 425.542969 288.5625 L 461.082031 310.011719 L 441.5625 342.359375 L 406.019531 320.910156 Z M 425.542969 288.5625 " clip-rule="nonzero"/></clipPath></defs><rect x="-81" width="972" fill="#ffffff" y="-80.999999" height="971.999992" fill-opacity="1"/><rect x="-81" width="972" fill="#000000" y="-80.999999" height="971.999992" fill-opacity="1"/><g fill="#ff7403" fill-opacity="1"><g transform="translate(123.725249, 561.111208)"><g><path d="M 17.28125 -30.234375 C 19.40625 -30.234375 21.476562 -29.820312 23.5 -29 C 25.519531 -28.1875 27.257812 -27.046875 28.71875 -25.578125 L 25.75 -21.890625 C 24.664062 -23.066406 23.378906 -24 21.890625 -24.6875 C 20.398438 -25.375 18.894531 -25.71875 17.375 -25.71875 C 14.363281 -25.71875 11.816406 -24.691406 9.734375 -22.640625 C 7.660156 -20.585938 6.625 -18.085938 6.625 -15.140625 C 6.625 -12.148438 7.660156 -9.628906 9.734375 -7.578125 C 11.816406 -5.535156 14.363281 -4.515625 17.375 -4.515625 C 20.5 -4.515625 23.289062 -5.703125 25.75 -8.078125 L 28.765625 -4.734375 C 27.210938 -3.210938 25.40625 -2.003906 23.34375 -1.109375 C 21.28125 -0.222656 19.203125 0.21875 17.109375 0.21875 C 12.691406 0.21875 8.976562 -1.25 5.96875 -4.1875 C 2.96875 -7.125 1.46875 -10.757812 1.46875 -15.09375 C 1.46875 -19.363281 2.992188 -22.953125 6.046875 -25.859375 C 9.097656 -28.773438 12.84375 -30.234375 17.28125 -30.234375 Z M 17.28125 -30.234375 "/></g></g></g><g fill="#ff7403" fill-opacity="1"><g transform="translate(170.89357, 561.111208)"><g><path d="M 6.0625 -25.859375 C 9.125 -28.773438 12.90625 -30.234375 17.40625 -30.234375 C 21.914062 -30.234375 25.703125 -28.773438 28.765625 -25.859375 C 31.835938 -22.953125 33.375 -19.347656 33.375 -15.046875 C 33.375 -10.742188 31.835938 -7.125 28.765625 -4.1875 C 25.703125 -1.25 21.914062 0.21875 17.40625 0.21875 C 12.90625 0.21875 9.125 -1.25 6.0625 -4.1875 C 3 -7.125 1.46875 -10.742188 1.46875 -15.046875 C 1.46875 -19.347656 3 -22.953125 6.0625 -25.859375 Z M 17.453125 -25.671875 C 14.472656 -25.671875 11.921875 -24.644531 9.796875 -22.59375 C 7.679688 -20.539062 6.625 -18.023438 6.625 -15.046875 C 6.625 -12.066406 7.691406 -9.535156 9.828125 -7.453125 C 11.960938 -5.378906 14.503906 -4.34375 17.453125 -4.34375 C 20.410156 -4.34375 22.9375 -5.378906 25.03125 -7.453125 C 27.125 -9.535156 28.171875 -12.066406 28.171875 -15.046875 C 28.171875 -18.023438 27.125 -20.539062 25.03125 -22.59375 C 22.9375 -24.644531 20.410156 -25.671875 17.453125 -25.671875 Z M 17.453125 -25.671875 "/></g></g></g><g fill="#ff7403" fill-opacity="1"><g transform="translate(222.920457, 561.111208)"><g><path d="M 13.84375 -30.3125 C 17.738281 -30.3125 21.25 -29.28125 24.375 -27.21875 L 22.28125 -22.75 C 19.207031 -24.613281 16.265625 -25.546875 13.453125 -25.546875 C 11.941406 -25.546875 10.75 -25.269531 9.875 -24.71875 C 9 -24.175781 8.5625 -23.398438 8.5625 -22.390625 C 8.5625 -21.390625 8.960938 -20.539062 9.765625 -19.84375 C 10.566406 -19.144531 11.566406 -18.628906 12.765625 -18.296875 C 13.972656 -17.960938 15.28125 -17.546875 16.6875 -17.046875 C 18.09375 -16.546875 19.394531 -16.015625 20.59375 -15.453125 C 21.800781 -14.898438 22.796875 -14.023438 23.578125 -12.828125 C 24.367188 -11.640625 24.765625 -10.203125 24.765625 -8.515625 C 24.765625 -5.878906 23.710938 -3.769531 21.609375 -2.1875 C 19.503906 -0.613281 16.773438 0.171875 13.421875 0.171875 C 11.117188 0.171875 8.894531 -0.253906 6.75 -1.109375 C 4.601562 -1.972656 2.726562 -3.132812 1.125 -4.59375 L 3.3125 -8.984375 C 4.832031 -7.578125 6.5 -6.492188 8.3125 -5.734375 C 10.132812 -4.972656 11.863281 -4.59375 13.5 -4.59375 C 15.28125 -4.59375 16.664062 -4.914062 17.65625 -5.5625 C 18.644531 -6.207031 19.140625 -7.101562 19.140625 -8.25 C 19.140625 -9.28125 18.738281 -10.144531 17.9375 -10.84375 C 17.132812 -11.550781 16.128906 -12.070312 14.921875 -12.40625 C 13.710938 -12.738281 12.40625 -13.140625 11 -13.609375 C 9.601562 -14.078125 8.300781 -14.578125 7.09375 -15.109375 C 5.882812 -15.640625 4.878906 -16.492188 4.078125 -17.671875 C 3.273438 -18.847656 2.875 -20.269531 2.875 -21.9375 C 2.875 -24.476562 3.878906 -26.507812 5.890625 -28.03125 C 7.898438 -29.550781 10.550781 -30.3125 13.84375 -30.3125 Z M 13.84375 -30.3125 "/></g></g></g><g fill="#ff7403" fill-opacity="1"><g transform="translate(266.864062, 561.111208)"><g><path d="M 35.78125 0 L 31.09375 0 L 31.046875 -22.484375 L 21.546875 -3.140625 L 18.234375 -3.140625 L 8.734375 -22.484375 L 8.734375 0 L 3.953125 0 L 3.953125 -30.09375 L 9.96875 -30.09375 L 19.90625 -10.109375 L 29.796875 -30.09375 L 35.78125 -30.09375 Z M 35.78125 0 "/></g></g></g><g fill="#ff7403" fill-opacity="1"><g transform="translate(323.835506, 561.111208)"><g><path d="M 9.03125 0 L 3.953125 0 L 3.953125 -30.09375 L 9.03125 -30.09375 Z M 9.03125 0 "/></g></g></g><g fill="#ff7403" fill-opacity="1"><g transform="translate(354.020326, 561.111208)"><g><path d="M 30.0625 0 L 25.0625 0 L 9.03125 -21.59375 L 9.03125 0 L 3.953125 0 L 3.953125 -30.09375 L 8.9375 -30.09375 L 25.0625 -8.46875 L 25.0625 -30.09375 L 30.0625 -30.09375 Z M 30.0625 0 "/></g></g></g><g fill="#000000" fill-opacity="1"><g transform="translate(405.279926, 561.111208)"><g/></g></g><g fill="#ffffff" fill-opacity="1"><g transform="translate(433.580702, 561.111208)"><g><path d="M 3.953125 -30.09375 L 16.296875 -30.09375 C 20.796875 -30.09375 24.515625 -28.675781 27.453125 -25.84375 C 30.390625 -23.007812 31.859375 -19.410156 31.859375 -15.046875 C 31.859375 -10.691406 30.378906 -7.09375 27.421875 -4.25 C 24.472656 -1.414062 20.722656 0 16.171875 0 L 3.953125 0 Z M 9.03125 -25.546875 L 9.03125 -4.5625 L 16.421875 -4.5625 C 19.378906 -4.5625 21.835938 -5.539062 23.796875 -7.5 C 25.765625 -9.46875 26.75 -11.96875 26.75 -15 C 26.75 -18.039062 25.738281 -20.554688 23.71875 -22.546875 C 21.695312 -24.546875 19.195312 -25.546875 16.21875 -25.546875 Z M 9.03125 -25.546875 "/></g></g></g><g fill="#ffffff" fill-opacity="1"><g transform="translate(484.102714, 561.111208)"><g><path d="M 23.390625 -6.796875 L 8.21875 -6.796875 L 5.328125 0 L 0.046875 0 L 13.328125 -30.09375 L 18.53125 -30.09375 L 31.6875 0 L 26.265625 0 Z M 21.453125 -11.3125 L 15.78125 -24.6875 L 10.109375 -11.3125 Z M 21.453125 -11.3125 "/></g></g></g><g fill="#ffffff" fill-opacity="1"><g transform="translate(533.033872, 561.111208)"><g><path d="M 23.046875 0 L 17.546875 -9.109375 C 17.253906 -9.085938 16.796875 -9.078125 16.171875 -9.078125 L 9.03125 -9.078125 L 9.03125 0 L 3.953125 0 L 3.953125 -30.09375 L 16.171875 -30.09375 C 20.015625 -30.09375 22.992188 -29.195312 25.109375 -27.40625 C 27.234375 -25.613281 28.296875 -23.085938 28.296875 -19.828125 C 28.296875 -17.421875 27.753906 -15.382812 26.671875 -13.71875 C 25.597656 -12.050781 24.0625 -10.832031 22.0625 -10.0625 L 28.8125 0 Z M 9.03125 -13.625 L 16.171875 -13.625 C 21.046875 -13.625 23.484375 -15.644531 23.484375 -19.6875 C 23.484375 -23.59375 21.046875 -25.546875 16.171875 -25.546875 L 9.03125 -25.546875 Z M 9.03125 -13.625 "/></g></g></g><g fill="#ffffff" fill-opacity="1"><g transform="translate(581.320086, 561.111208)"><g><path d="M 9.03125 0 L 3.953125 0 L 3.953125 -30.09375 L 9.03125 -30.09375 Z M 9.03125 0 "/></g></g></g><g fill="#ffffff" fill-opacity="1"><g transform="translate(611.504918, 561.111208)"><g><path d="M 29.546875 -30.09375 L 29.546875 -12.46875 C 29.546875 -8.539062 28.382812 -5.441406 26.0625 -3.171875 C 23.738281 -0.910156 20.539062 0.21875 16.46875 0.21875 C 12.394531 0.21875 9.191406 -0.910156 6.859375 -3.171875 C 4.523438 -5.441406 3.359375 -8.539062 3.359375 -12.46875 L 3.359375 -30.09375 L 8.421875 -30.09375 L 8.421875 -12.46875 C 8.421875 -9.945312 9.144531 -7.960938 10.59375 -6.515625 C 12.039062 -5.066406 14.015625 -4.34375 16.515625 -4.34375 C 18.972656 -4.34375 20.910156 -5.054688 22.328125 -6.484375 C 23.753906 -7.921875 24.46875 -9.914062 24.46875 -12.46875 L 24.46875 -30.09375 Z M 29.546875 -30.09375 "/></g></g></g><g fill="#ffffff" fill-opacity="1"><g transform="translate(661.55398, 561.111208)"><g><path d="M 13.84375 -30.3125 C 17.738281 -30.3125 21.25 -29.28125 24.375 -27.21875 L 22.28125 -22.75 C 19.207031 -24.613281 16.265625 -25.546875 13.453125 -25.546875 C 11.941406 -25.546875 10.75 -25.269531 9.875 -24.71875 C 9 -24.175781 8.5625 -23.398438 8.5625 -22.390625 C 8.5625 -21.390625 8.960938 -20.539062 9.765625 -19.84375 C 10.566406 -19.144531 11.566406 -18.628906 12.765625 -18.296875 C 13.972656 -17.960938 15.28125 -17.546875 16.6875 -17.046875 C 18.09375 -16.546875 19.394531 -16.015625 20.59375 -15.453125 C 21.800781 -14.898438 22.796875 -14.023438 23.578125 -12.828125 C 24.367188 -11.640625 24.765625 -10.203125 24.765625 -8.515625 C 24.765625 -5.878906 23.710938 -3.769531 21.609375 -2.1875 C 19.503906 -0.613281 16.773438 0.171875 13.421875 0.171875 C 11.117188 0.171875 8.894531 -0.253906 6.75 -1.109375 C 4.601562 -1.972656 2.726562 -3.132812 1.125 -4.59375 L 3.3125 -8.984375 C 4.832031 -7.578125 6.5 -6.492188 8.3125 -5.734375 C 10.132812 -4.972656 11.863281 -4.59375 13.5 -4.59375 C 15.28125 -4.59375 16.664062 -4.914062 17.65625 -5.5625 C 18.644531 -6.207031 19.140625 -7.101562 19.140625 -8.25 C 19.140625 -9.28125 18.738281 -10.144531 17.9375 -10.84375 C 17.132812 -11.550781 16.128906 -12.070312 14.921875 -12.40625 C 13.710938 -12.738281 12.40625 -13.140625 11 -13.609375 C 9.601562 -14.078125 8.300781 -14.578125 7.09375 -15.109375 C 5.882812 -15.640625 4.878906 -16.492188 4.078125 -17.671875 C 3.273438 -18.847656 2.875 -20.269531 2.875 -21.9375 C 2.875 -24.476562 3.878906 -26.507812 5.890625 -28.03125 C 7.898438 -29.550781 10.550781 -30.3125 13.84375 -30.3125 Z M 13.84375 -30.3125 "/></g></g></g><g fill="#ff7403" fill-opacity="1"><g transform="translate(322.173357, 323.845911)"><g><path d="M 70.640625 -110.390625 C 78.273438 -110.390625 84.519531 -109.835938 89.375 -108.734375 C 94.238281 -107.640625 99.390625 -105.703125 104.828125 -102.921875 C 105.523438 -102.460938 105.957031 -102.085938 106.125 -101.796875 C 106.300781 -101.503906 106.445312 -100.609375 106.5625 -99.109375 L 108.65625 -79.3125 C 108.65625 -78.96875 108.332031 -78.765625 107.6875 -78.703125 C 107.050781 -78.648438 106.675781 -78.796875 106.5625 -79.140625 C 104.019531 -88.742188 99.796875 -95.945312 93.890625 -100.75 C 87.992188 -105.550781 80.242188 -107.953125 70.640625 -107.953125 C 60.453125 -107.953125 51.507812 -105.8125 43.8125 -101.53125 C 36.125 -97.25 30.164062 -91.144531 25.9375 -83.21875 C 21.71875 -75.289062 19.609375 -66.066406 19.609375 -55.546875 C 19.609375 -45.703125 21.953125 -36.53125 26.640625 -28.03125 C 31.328125 -19.53125 37.632812 -12.757812 45.5625 -7.71875 C 53.488281 -2.6875 61.960938 -0.171875 70.984375 -0.171875 C 90.191406 -0.171875 102.457031 -9.601562 107.78125 -28.46875 C 107.78125 -28.695312 108.070312 -28.8125 108.65625 -28.8125 C 109.457031 -28.8125 109.859375 -28.640625 109.859375 -28.296875 L 108.484375 -9.890625 C 108.359375 -8.503906 108.179688 -7.632812 107.953125 -7.28125 C 107.722656 -6.9375 107.257812 -6.535156 106.5625 -6.078125 C 100.550781 -2.953125 94.910156 -0.785156 89.640625 0.421875 C 84.378906 1.640625 78.101562 2.25 70.8125 2.25 C 58.78125 2.25 48.046875 -0.148438 38.609375 -4.953125 C 29.179688 -9.753906 21.804688 -16.519531 16.484375 -25.25 C 11.160156 -33.988281 8.5 -44.023438 8.5 -55.359375 C 8.5 -66.242188 11.160156 -75.847656 16.484375 -84.171875 C 21.804688 -92.503906 29.179688 -98.957031 38.609375 -103.53125 C 48.046875 -108.101562 58.722656 -110.390625 70.640625 -110.390625 Z M 70.640625 -110.390625 "/></g></g></g><g fill="#ffffff" fill-opacity="1"><g transform="translate(386.610043, 408.227181)"><g><path d="M 51.546875 0.6875 C 48.191406 0.6875 44.429688 0.515625 40.265625 0.171875 C 38.648438 0.0546875 36.65625 -0.0546875 34.28125 -0.171875 C 31.90625 -0.285156 29.269531 -0.34375 26.375 -0.34375 L 14.921875 -0.171875 C 12.835938 -0.0546875 9.945312 0 6.25 0 C 6.019531 0 5.90625 -0.34375 5.90625 -1.03125 C 5.90625 -1.726562 6.019531 -2.078125 6.25 -2.078125 C 10.757812 -2.078125 14.082031 -2.363281 16.21875 -2.9375 C 18.363281 -3.519531 19.84375 -4.648438 20.65625 -6.328125 C 21.46875 -8.015625 21.875 -10.59375 21.875 -14.0625 L 21.875 -94.421875 C 21.875 -97.890625 21.492188 -100.429688 20.734375 -102.046875 C 19.984375 -103.671875 18.535156 -104.800781 16.390625 -105.4375 C 14.253906 -106.070312 10.929688 -106.390625 6.421875 -106.390625 C 6.191406 -106.390625 6.078125 -106.738281 6.078125 -107.4375 C 6.078125 -108.132812 6.191406 -108.484375 6.421875 -108.484375 L 14.921875 -108.296875 C 19.785156 -108.066406 23.601562 -107.953125 26.375 -107.953125 C 30.425781 -107.953125 34.535156 -108.128906 38.703125 -108.484375 C 43.796875 -108.710938 47.269531 -108.828125 49.125 -108.828125 C 61.269531 -108.828125 72.023438 -106.507812 81.390625 -101.875 C 90.765625 -97.25 98.023438 -90.941406 103.171875 -82.953125 C 108.328125 -74.972656 110.90625 -66.007812 110.90625 -56.0625 C 110.90625 -44.832031 108.210938 -34.90625 102.828125 -26.28125 C 97.453125 -17.664062 90.25 -11.015625 81.21875 -6.328125 C 72.195312 -1.648438 62.304688 0.6875 51.546875 0.6875 Z M 49.8125 -1.5625 C 59.53125 -1.5625 68.148438 -3.523438 75.671875 -7.453125 C 83.191406 -11.390625 89.0625 -17.175781 93.28125 -24.8125 C 97.507812 -32.457031 99.625 -41.601562 99.625 -52.25 C 99.625 -62.425781 97.628906 -71.617188 93.640625 -79.828125 C 89.648438 -88.046875 83.921875 -94.554688 76.453125 -99.359375 C 68.992188 -104.160156 60.40625 -106.5625 50.6875 -106.5625 C 45.59375 -106.5625 41.6875 -106.269531 38.96875 -105.6875 C 36.25 -105.113281 34.25 -103.929688 32.96875 -102.140625 C 31.695312 -100.347656 31.0625 -97.660156 31.0625 -94.078125 L 31.0625 -15.96875 C 31.0625 -12.5 31.582031 -9.722656 32.625 -7.640625 C 33.664062 -5.554688 35.515625 -4.019531 38.171875 -3.03125 C 40.835938 -2.050781 44.71875 -1.5625 49.8125 -1.5625 Z M 49.8125 -1.5625 "/></g></g></g><g clip-path="url(#d3cd4db3a6)"><g clip-path="url(#6ff7f38017)"><g clip-path="url(#f4c0da6c87)"><path fill="#000000" d="M 420.671875 269.144531 L 446.753906 284.886719 L 387.785156 382.59375 L 361.703125 366.851562 Z M 420.671875 269.144531 " fill-opacity="1" fill-rule="nonzero"/></g></g></g><g clip-path="url(#9f01297b10)"><g clip-path="url(#da56f0b80f)"><g clip-path="url(#f2207e5532)"><path fill="#000000" d="M 386.304688 284.699219 L 421.84375 306.148438 L 399.976562 342.382812 L 364.433594 320.933594 Z M 386.304688 284.699219 " fill-opacity="1" fill-rule="nonzero"/></g></g></g><g clip-path="url(#b4e2e14af2)"><g clip-path="url(#fbfb2e8338)"><g clip-path="url(#46e6644593)"><path fill="#000000" d="M 425.542969 288.5625 L 461.046875 309.988281 L 441.523438 342.335938 L 406.019531 320.910156 Z M 425.542969 288.5625 " fill-opacity="1" fill-rule="nonzero"/></g></g></g><path stroke-linecap="butt" transform="matrix(0.431053, -0.613753, 0.613753, 0.431053, 351.023278, 395.563711)" fill="none" stroke-linejoin="miter" d="M -0.000561531 1.999116 L 252.475521 2.001439 " stroke="#3d3b3a" stroke-width="4" stroke-opacity="1" stroke-miterlimit="4"/><g fill="#ffffff" fill-opacity="1"><g transform="translate(94.41618, 653.673731)"><g><path d="M 24.34375 -29.484375 C 24.59375 -29.484375 24.6875 -29.34375 24.625 -29.0625 L 24.25 -26.65625 L 23.640625 -22.734375 C 23.597656 -22.640625 23.515625 -22.59375 23.390625 -22.59375 C 23.328125 -22.59375 23.253906 -22.613281 23.171875 -22.65625 C 23.097656 -22.707031 23.0625 -22.75 23.0625 -22.78125 C 22.90625 -24.539062 22.273438 -25.929688 21.171875 -26.953125 C 20.078125 -27.972656 18.664062 -28.484375 16.9375 -28.484375 L 16.125 -28.484375 C 15.21875 -28.484375 14.554688 -28.410156 14.140625 -28.265625 C 13.734375 -28.128906 13.441406 -27.875 13.265625 -27.5 C 13.097656 -27.125 12.921875 -26.492188 12.734375 -25.609375 L 10.9375 -15.421875 L 15.28125 -15.421875 C 16.695312 -15.421875 17.796875 -15.703125 18.578125 -16.265625 C 19.367188 -16.835938 19.90625 -17.769531 20.1875 -19.0625 C 20.1875 -19.15625 20.28125 -19.203125 20.46875 -19.203125 C 20.53125 -19.203125 20.597656 -19.175781 20.671875 -19.125 C 20.753906 -19.082031 20.78125 -19.03125 20.75 -18.96875 C 20.625 -18.082031 20.4375 -17.101562 20.1875 -16.03125 C 20.1875 -15.90625 20.109375 -15.484375 19.953125 -14.765625 L 19.765625 -13.53125 C 19.640625 -12.625 19.453125 -11.429688 19.203125 -9.953125 C 19.171875 -9.828125 19.054688 -9.769531 18.859375 -9.78125 C 18.671875 -9.800781 18.597656 -9.875 18.640625 -10 C 18.703125 -10.4375 18.734375 -10.75 18.734375 -10.9375 C 18.734375 -11.976562 18.398438 -12.765625 17.734375 -13.296875 C 17.078125 -13.835938 16.148438 -14.109375 14.953125 -14.109375 L 10.703125 -14.109375 L 8.921875 -4.015625 C 8.828125 -3.503906 8.78125 -3.078125 8.78125 -2.734375 C 8.78125 -1.890625 9.066406 -1.316406 9.640625 -1.015625 C 10.222656 -0.710938 11.300781 -0.5625 12.875 -0.5625 C 12.9375 -0.5625 12.96875 -0.46875 12.96875 -0.28125 C 12.96875 -0.09375 12.9375 0 12.875 0 C 12.21875 0 11.65625 -0.015625 11.1875 -0.046875 L 5.84375 -0.09375 L 2.828125 -0.046875 C 2.328125 -0.015625 1.617188 0 0.703125 0 C 0.640625 0 0.609375 -0.09375 0.609375 -0.28125 C 0.609375 -0.46875 0.640625 -0.5625 0.703125 -0.5625 C 1.585938 -0.5625 2.25 -0.640625 2.6875 -0.796875 C 3.125 -0.953125 3.453125 -1.257812 3.671875 -1.71875 C 3.898438 -2.175781 4.09375 -2.878906 4.25 -3.828125 L 8.109375 -25.65625 C 8.234375 -26.476562 8.296875 -27 8.296875 -27.21875 C 8.296875 -27.875 8.109375 -28.320312 7.734375 -28.5625 C 7.359375 -28.800781 6.710938 -28.921875 5.796875 -28.921875 C 5.703125 -28.921875 5.65625 -29.015625 5.65625 -29.203125 C 5.65625 -29.390625 5.703125 -29.484375 5.796875 -29.484375 Z M 24.34375 -29.484375 "/></g></g></g><g fill="#ffffff" fill-opacity="1"><g transform="translate(131.445288, 653.673731)"><g><path d="M 21.03125 -3.78125 C 21.0625 -3.8125 21.113281 -3.828125 21.1875 -3.828125 C 21.28125 -3.828125 21.359375 -3.769531 21.421875 -3.65625 C 21.484375 -3.539062 21.484375 -3.4375 21.421875 -3.34375 C 20.285156 -2.03125 19.269531 -1.070312 18.375 -0.46875 C 17.476562 0.125 16.570312 0.421875 15.65625 0.421875 C 14.175781 0.421875 13.4375 -0.410156 13.4375 -2.078125 C 13.4375 -2.546875 13.484375 -3.0625 13.578125 -3.625 L 14.34375 -7.921875 C 13.238281 -5.191406 11.96875 -3.085938 10.53125 -1.609375 C 9.101562 -0.128906 7.585938 0.609375 5.984375 0.609375 C 3.816406 0.609375 2.734375 -0.675781 2.734375 -3.25 C 2.734375 -4.070312 2.8125 -4.859375 2.96875 -5.609375 L 4.625 -14.015625 C 4.71875 -14.484375 4.765625 -14.859375 4.765625 -15.140625 C 4.765625 -15.867188 4.515625 -16.234375 4.015625 -16.234375 C 3.691406 -16.234375 3.347656 -16.097656 2.984375 -15.828125 C 2.628906 -15.554688 2.15625 -15.140625 1.5625 -14.578125 C 1.5 -14.515625 1.4375 -14.484375 1.375 -14.484375 C 1.269531 -14.484375 1.1875 -14.535156 1.125 -14.640625 C 1.0625 -14.753906 1.078125 -14.859375 1.171875 -14.953125 C 2.242188 -16.210938 3.179688 -17.140625 3.984375 -17.734375 C 4.785156 -18.335938 5.628906 -18.640625 6.515625 -18.640625 C 8.054688 -18.640625 8.828125 -17.738281 8.828125 -15.9375 C 8.828125 -15.5 8.742188 -14.859375 8.578125 -14.015625 L 7.125 -6.515625 C 6.96875 -5.816406 6.890625 -5.109375 6.890625 -4.390625 C 6.890625 -2.847656 7.390625 -2.078125 8.390625 -2.078125 C 9.273438 -2.078125 10.1875 -2.648438 11.125 -3.796875 C 12.070312 -4.941406 12.960938 -6.613281 13.796875 -8.8125 C 14.628906 -11.019531 15.328125 -13.664062 15.890625 -16.75 L 16.03125 -17.640625 C 16.195312 -18.265625 17.082031 -18.578125 18.6875 -18.578125 C 19.21875 -18.578125 19.609375 -18.535156 19.859375 -18.453125 C 20.109375 -18.378906 20.234375 -18.296875 20.234375 -18.203125 L 20.046875 -17.21875 C 19.734375 -15.738281 19.5625 -14.90625 19.53125 -14.71875 L 17.59375 -4.203125 C 17.53125 -3.921875 17.5 -3.570312 17.5 -3.15625 C 17.5 -2.3125 17.765625 -1.890625 18.296875 -1.890625 C 18.960938 -1.890625 19.875 -2.519531 21.03125 -3.78125 Z M 21.03125 -3.78125 "/></g></g></g><g fill="#ffffff" fill-opacity="1"><g transform="translate(168.049889, 653.673731)"><g><path d="M 4.4375 0.421875 C 2.925781 0.421875 2.171875 -0.472656 2.171875 -2.265625 C 2.171875 -2.890625 2.234375 -3.535156 2.359375 -4.203125 L 6.703125 -27.78125 C 6.796875 -28.414062 6.84375 -28.9375 6.84375 -29.34375 C 6.84375 -30.25 6.539062 -30.703125 5.9375 -30.703125 C 5.5625 -30.703125 4.90625 -30.484375 3.96875 -30.046875 L 3.921875 -30.046875 C 3.753906 -30.046875 3.65625 -30.128906 3.625 -30.296875 C 3.59375 -30.472656 3.644531 -30.578125 3.78125 -30.609375 L 11.078125 -34.203125 L 11.1875 -34.203125 C 11.3125 -34.203125 11.425781 -34.15625 11.53125 -34.0625 C 11.644531 -33.96875 11.6875 -33.890625 11.65625 -33.828125 L 6.375 -4.203125 C 6.28125 -3.722656 6.234375 -3.328125 6.234375 -3.015625 C 6.234375 -2.328125 6.46875 -1.984375 6.9375 -1.984375 C 7.25 -1.984375 7.597656 -2.125 7.984375 -2.40625 C 8.378906 -2.6875 8.863281 -3.09375 9.4375 -3.625 C 9.5 -3.695312 9.5625 -3.734375 9.625 -3.734375 C 9.71875 -3.734375 9.796875 -3.675781 9.859375 -3.5625 C 9.921875 -3.445312 9.90625 -3.34375 9.8125 -3.25 C 8.738281 -2 7.789062 -1.070312 6.96875 -0.46875 C 6.15625 0.125 5.3125 0.421875 4.4375 0.421875 Z M 4.4375 0.421875 "/></g></g></g><g fill="#ffffff" fill-opacity="1"><g transform="translate(193.853042, 653.673731)"><g><path d="M 4.4375 0.421875 C 2.925781 0.421875 2.171875 -0.472656 2.171875 -2.265625 C 2.171875 -2.890625 2.234375 -3.535156 2.359375 -4.203125 L 6.703125 -27.78125 C 6.796875 -28.414062 6.84375 -28.9375 6.84375 -29.34375 C 6.84375 -30.25 6.539062 -30.703125 5.9375 -30.703125 C 5.5625 -30.703125 4.90625 -30.484375 3.96875 -30.046875 L 3.921875 -30.046875 C 3.753906 -30.046875 3.65625 -30.128906 3.625 -30.296875 C 3.59375 -30.472656 3.644531 -30.578125 3.78125 -30.609375 L 11.078125 -34.203125 L 11.1875 -34.203125 C 11.3125 -34.203125 11.425781 -34.15625 11.53125 -34.0625 C 11.644531 -33.96875 11.6875 -33.890625 11.65625 -33.828125 L 6.375 -4.203125 C 6.28125 -3.722656 6.234375 -3.328125 6.234375 -3.015625 C 6.234375 -2.328125 6.46875 -1.984375 6.9375 -1.984375 C 7.25 -1.984375 7.597656 -2.125 7.984375 -2.40625 C 8.378906 -2.6875 8.863281 -3.09375 9.4375 -3.625 C 9.5 -3.695312 9.5625 -3.734375 9.625 -3.734375 C 9.71875 -3.734375 9.796875 -3.675781 9.859375 -3.5625 C 9.921875 -3.445312 9.90625 -3.34375 9.8125 -3.25 C 8.738281 -2 7.789062 -1.070312 6.96875 -0.46875 C 6.15625 0.125 5.3125 0.421875 4.4375 0.421875 Z M 4.4375 0.421875 "/></g></g></g><g fill="#ffffff" fill-opacity="1"><g transform="translate(219.656194, 653.673731)"><g/></g></g><g fill="#ffffff" fill-opacity="1"><g transform="translate(244.846161, 653.673731)"><g><path d="M 9.0625 0.5625 C 6.507812 0.5625 4.101562 0.03125 1.84375 -1.03125 C 1.53125 -1.257812 1.4375 -1.5625 1.5625 -1.9375 L 3.0625 -8.578125 C 3.0625 -8.742188 3.144531 -8.828125 3.3125 -8.828125 C 3.488281 -8.828125 3.59375 -8.742188 3.625 -8.578125 C 4.789062 -3.234375 7.023438 -0.5625 10.328125 -0.5625 C 11.867188 -0.5625 13.117188 -1.101562 14.078125 -2.1875 C 15.035156 -3.28125 15.515625 -4.722656 15.515625 -6.515625 C 15.515625 -8.023438 15.082031 -9.328125 14.21875 -10.421875 C 13.351562 -11.523438 12.101562 -12.707031 10.46875 -13.96875 C 9.269531 -14.875 8.328125 -15.640625 7.640625 -16.265625 C 6.953125 -16.898438 6.367188 -17.640625 5.890625 -18.484375 C 5.421875 -19.335938 5.1875 -20.285156 5.1875 -21.328125 C 5.1875 -21.765625 5.234375 -22.21875 5.328125 -22.6875 C 5.828125 -25.050781 7.078125 -26.859375 9.078125 -28.109375 C 11.078125 -29.367188 13.332031 -30 15.84375 -30 C 17.707031 -30 19.566406 -29.625 21.421875 -28.875 C 21.859375 -28.644531 22.03125 -28.375 21.9375 -28.0625 L 21.234375 -21.9375 C 21.203125 -21.84375 21.113281 -21.796875 20.96875 -21.796875 C 20.820312 -21.796875 20.734375 -21.84375 20.703125 -21.9375 C 20.203125 -24.132812 19.398438 -25.863281 18.296875 -27.125 C 17.203125 -28.382812 15.960938 -29.015625 14.578125 -29.015625 C 13.503906 -29.015625 12.617188 -28.722656 11.921875 -28.140625 C 11.234375 -27.554688 10.734375 -26.863281 10.421875 -26.0625 C 10.109375 -25.257812 9.953125 -24.484375 9.953125 -23.734375 C 9.953125 -22.785156 10.171875 -21.929688 10.609375 -21.171875 C 11.054688 -20.421875 11.578125 -19.769531 12.171875 -19.21875 C 12.765625 -18.664062 13.660156 -17.921875 14.859375 -16.984375 C 16.710938 -15.535156 18.125 -14.210938 19.09375 -13.015625 C 20.070312 -11.828125 20.5625 -10.414062 20.5625 -8.78125 C 20.5625 -8.238281 20.53125 -7.828125 20.46875 -7.546875 C 20.03125 -5.160156 18.820312 -3.210938 16.84375 -1.703125 C 14.863281 -0.191406 12.269531 0.5625 9.0625 0.5625 Z M 9.0625 0.5625 "/></g></g></g><g fill="#ffffff" fill-opacity="1"><g transform="translate(281.167749, 653.673731)"><g><path d="M 14.34375 -18.203125 C 14.5625 -18.203125 14.671875 -18.0625 14.671875 -17.78125 C 14.671875 -17.53125 14.488281 -17.148438 14.125 -16.640625 C 13.757812 -16.140625 13.421875 -15.890625 13.109375 -15.890625 C 13.015625 -15.890625 12.503906 -15.96875 11.578125 -16.125 C 10.648438 -16.289062 9.601562 -16.40625 8.4375 -16.46875 L 6.46875 -5.234375 C 6.40625 -4.734375 6.375 -4.390625 6.375 -4.203125 C 6.375 -3.441406 6.566406 -2.890625 6.953125 -2.546875 C 7.347656 -2.203125 7.957031 -2.03125 8.78125 -2.03125 C 9.96875 -2.03125 11.285156 -2.613281 12.734375 -3.78125 L 12.78125 -3.78125 C 12.90625 -3.78125 13.015625 -3.726562 13.109375 -3.625 C 13.203125 -3.53125 13.203125 -3.4375 13.109375 -3.34375 C 11.660156 -1.96875 10.378906 -0.972656 9.265625 -0.359375 C 8.148438 0.253906 7.039062 0.5625 5.9375 0.5625 C 3.394531 0.5625 2.125 -0.582031 2.125 -2.875 C 2.125 -3.34375 2.171875 -3.863281 2.265625 -4.4375 L 4.109375 -14.4375 C 4.203125 -14.96875 4.25 -15.40625 4.25 -15.75 C 4.25 -16.226562 4.117188 -16.546875 3.859375 -16.703125 C 3.609375 -16.859375 3.15625 -16.9375 2.5 -16.9375 C 2.40625 -16.9375 2.359375 -17.046875 2.359375 -17.265625 C 2.359375 -17.546875 2.40625 -17.6875 2.5 -17.6875 C 5.019531 -17.6875 7.015625 -19.070312 8.484375 -21.84375 C 8.546875 -21.9375 8.660156 -21.984375 8.828125 -21.984375 C 8.984375 -21.984375 9.125 -21.953125 9.25 -21.890625 C 9.375 -21.828125 9.421875 -21.765625 9.390625 -21.703125 L 8.671875 -17.828125 C 9.554688 -17.859375 10.3125 -17.894531 10.9375 -17.9375 C 11.570312 -17.988281 12.109375 -18.03125 12.546875 -18.0625 C 13.367188 -18.15625 13.96875 -18.203125 14.34375 -18.203125 Z M 14.34375 -18.203125 "/></g></g></g><g fill="#ffffff" fill-opacity="1"><g transform="translate(309.517968, 653.673731)"><g><path d="M 19.578125 -3.625 C 19.609375 -3.65625 19.65625 -3.671875 19.71875 -3.671875 C 19.8125 -3.671875 19.890625 -3.613281 19.953125 -3.5 C 20.015625 -3.394531 20.015625 -3.3125 19.953125 -3.25 C 17.941406 -0.800781 16.179688 0.421875 14.671875 0.421875 C 13.847656 0.421875 13.25 0.195312 12.875 -0.25 C 12.5 -0.707031 12.3125 -1.425781 12.3125 -2.40625 C 12.3125 -2.9375 12.359375 -3.535156 12.453125 -4.203125 L 13.015625 -7.40625 C 11.828125 -4.882812 10.40625 -2.914062 8.75 -1.5 C 7.101562 -0.09375 5.492188 0.609375 3.921875 0.609375 C 2.941406 0.609375 2.164062 0.3125 1.59375 -0.28125 C 1.03125 -0.875 0.75 -1.769531 0.75 -2.96875 C 0.75 -5.070312 1.445312 -7.375 2.84375 -9.875 C 4.25 -12.375 5.976562 -14.488281 8.03125 -16.21875 C 10.09375 -17.957031 12.039062 -18.828125 13.875 -18.828125 C 14.4375 -18.828125 15.023438 -18.722656 15.640625 -18.515625 C 16.253906 -18.304688 16.78125 -18 17.21875 -17.59375 C 17.8125 -18.03125 18.300781 -18.566406 18.6875 -19.203125 C 18.75 -19.265625 18.8125 -19.296875 18.875 -19.296875 C 18.96875 -19.296875 19.0625 -19.265625 19.15625 -19.203125 C 19.25 -19.140625 19.28125 -19.09375 19.25 -19.0625 L 16.515625 -4.203125 C 16.421875 -3.785156 16.375 -3.421875 16.375 -3.109375 C 16.375 -2.359375 16.59375 -1.984375 17.03125 -1.984375 C 17.625 -1.984375 18.472656 -2.53125 19.578125 -3.625 Z M 6.9375 -2.828125 C 7.875 -2.828125 8.835938 -3.320312 9.828125 -4.3125 C 10.828125 -5.300781 11.691406 -6.507812 12.421875 -7.9375 C 13.160156 -9.375 13.644531 -10.707031 13.875 -11.9375 C 13.96875 -12.46875 14.015625 -12.9375 14.015625 -13.34375 C 14.015625 -14.351562 13.785156 -15.132812 13.328125 -15.6875 C 12.867188 -16.238281 12.234375 -16.515625 11.421875 -16.515625 C 9.972656 -16.515625 8.6875 -15.734375 7.5625 -14.171875 C 6.445312 -12.617188 5.671875 -10.597656 5.234375 -8.109375 C 5.078125 -7.109375 5 -6.351562 5 -5.84375 C 5 -4.8125 5.171875 -4.050781 5.515625 -3.5625 C 5.859375 -3.070312 6.332031 -2.828125 6.9375 -2.828125 Z M 6.9375 -2.828125 "/></g></g></g><g fill="#ffffff" fill-opacity="1"><g transform="translate(344.613196, 653.673731)"><g><path d="M 7.546875 0.609375 C 5.347656 0.609375 3.726562 -0.101562 2.6875 -1.53125 C 1.644531 -2.957031 1.125 -4.757812 1.125 -6.9375 C 1.125 -7.71875 1.207031 -8.582031 1.375 -9.53125 C 1.6875 -11.351562 2.398438 -12.972656 3.515625 -14.390625 C 4.628906 -15.804688 5.941406 -16.898438 7.453125 -17.671875 C 8.960938 -18.441406 10.457031 -18.828125 11.9375 -18.828125 C 13.101562 -18.828125 14.132812 -18.570312 15.03125 -18.0625 C 15.925781 -17.5625 16.375 -16.835938 16.375 -15.890625 C 16.375 -15.171875 16.160156 -14.597656 15.734375 -14.171875 C 15.304688 -13.742188 14.71875 -13.53125 13.96875 -13.53125 C 13.207031 -13.53125 12.65625 -13.726562 12.3125 -14.125 C 11.96875 -14.519531 11.734375 -15.03125 11.609375 -15.65625 C 11.453125 -16.257812 11.253906 -16.71875 11.015625 -17.03125 C 10.773438 -17.34375 10.390625 -17.5 9.859375 -17.5 C 8.910156 -17.5 8.078125 -16.925781 7.359375 -15.78125 C 6.640625 -14.632812 6.117188 -13.101562 5.796875 -11.1875 C 5.609375 -10.144531 5.515625 -9.148438 5.515625 -8.203125 C 5.515625 -6.222656 5.921875 -4.644531 6.734375 -3.46875 C 7.554688 -2.289062 8.785156 -1.703125 10.421875 -1.703125 C 11.054688 -1.703125 11.78125 -1.847656 12.59375 -2.140625 C 13.414062 -2.441406 14.078125 -2.78125 14.578125 -3.15625 L 14.625 -3.15625 C 14.71875 -3.15625 14.8125 -3.109375 14.90625 -3.015625 C 15 -2.921875 15.015625 -2.828125 14.953125 -2.734375 C 13.816406 -1.628906 12.601562 -0.796875 11.3125 -0.234375 C 10.03125 0.328125 8.773438 0.609375 7.546875 0.609375 Z M 7.546875 0.609375 "/></g></g></g><g fill="#ffffff" fill-opacity="1"><g transform="translate(375.133145, 653.673731)"><g><path d="M 19.53125 -3.53125 C 19.5625 -3.5625 19.609375 -3.578125 19.671875 -3.578125 C 19.796875 -3.578125 19.890625 -3.519531 19.953125 -3.40625 C 20.015625 -3.300781 20 -3.21875 19.90625 -3.15625 C 17.832031 -0.769531 16.179688 0.421875 14.953125 0.421875 C 14.140625 0.421875 13.425781 0.195312 12.8125 -0.25 C 12.195312 -0.707031 11.507812 -1.535156 10.75 -2.734375 L 8.015625 -7.265625 C 7.796875 -7.640625 7.597656 -7.90625 7.421875 -8.0625 C 7.253906 -8.21875 7.0625 -8.3125 6.84375 -8.34375 L 5.46875 -0.5625 C 5.3125 0.0625 4.429688 0.375 2.828125 0.375 C 1.796875 0.375 1.28125 0.25 1.28125 0 L 1.46875 -0.984375 C 1.78125 -2.460938 1.953125 -3.296875 1.984375 -3.484375 L 6.421875 -27.78125 C 6.515625 -28.414062 6.5625 -28.9375 6.5625 -29.34375 C 6.5625 -30.25 6.257812 -30.703125 5.65625 -30.703125 C 5.28125 -30.703125 4.617188 -30.484375 3.671875 -30.046875 L 3.625 -30.046875 C 3.5 -30.046875 3.410156 -30.128906 3.359375 -30.296875 C 3.316406 -30.472656 3.359375 -30.578125 3.484375 -30.609375 L 10.796875 -34.203125 L 10.890625 -34.203125 C 11.015625 -34.203125 11.132812 -34.160156 11.25 -34.078125 C 11.363281 -34.003906 11.40625 -33.921875 11.375 -33.828125 L 8.109375 -15.515625 C 9.242188 -16.554688 10.460938 -17.367188 11.765625 -17.953125 C 13.078125 -18.535156 14.359375 -18.828125 15.609375 -18.828125 C 16.929688 -18.828125 17.8125 -18.539062 18.25 -17.96875 C 18.695312 -17.40625 18.875 -16.742188 18.78125 -15.984375 C 18.582031 -14.828125 17.816406 -13.679688 16.484375 -12.546875 C 15.148438 -11.410156 13.347656 -10.421875 11.078125 -9.578125 L 14.0625 -4.8125 C 14.6875 -3.800781 15.210938 -3.128906 15.640625 -2.796875 C 16.066406 -2.472656 16.515625 -2.3125 16.984375 -2.3125 C 17.671875 -2.3125 18.519531 -2.71875 19.53125 -3.53125 Z M 12.59375 -16.796875 C 11.332031 -16.796875 10.195312 -16.140625 9.1875 -14.828125 C 8.1875 -13.523438 7.484375 -11.804688 7.078125 -9.671875 L 7.03125 -9.296875 C 9.445312 -9.859375 11.195312 -10.601562 12.28125 -11.53125 C 13.375 -12.457031 13.921875 -13.628906 13.921875 -15.046875 C 13.921875 -16.210938 13.476562 -16.796875 12.59375 -16.796875 Z M 12.59375 -16.796875 "/></g></g></g><g fill="#3d3b3a" fill-opacity="1"><g transform="translate(408.724758, 653.673731)"><g/></g></g><g fill="#ff7403" fill-opacity="1"><g transform="translate(433.920069, 653.673731)"><g><path d="M 11.84375 0.1875 C 11.082031 0.1875 10.203125 0.140625 9.203125 0.046875 C 8.816406 0.015625 8.34375 -0.015625 7.78125 -0.046875 C 7.21875 -0.078125 6.570312 -0.09375 5.84375 -0.09375 L 2.734375 -0.046875 C 2.234375 -0.015625 1.523438 0 0.609375 0 C 0.515625 0 0.46875 -0.09375 0.46875 -0.28125 C 0.46875 -0.46875 0.515625 -0.5625 0.609375 -0.5625 C 1.492188 -0.5625 2.144531 -0.640625 2.5625 -0.796875 C 2.988281 -0.953125 3.3125 -1.25 3.53125 -1.6875 C 3.757812 -2.132812 3.96875 -2.847656 4.15625 -3.828125 L 8.015625 -25.65625 C 8.140625 -26.476562 8.203125 -27 8.203125 -27.21875 C 8.203125 -27.875 8.015625 -28.320312 7.640625 -28.5625 C 7.265625 -28.800781 6.601562 -28.921875 5.65625 -28.921875 C 5.59375 -28.921875 5.5625 -29.015625 5.5625 -29.203125 C 5.5625 -29.390625 5.59375 -29.484375 5.65625 -29.484375 L 7.875 -29.4375 C 9.132812 -29.375 10.171875 -29.34375 10.984375 -29.34375 C 11.867188 -29.34375 12.785156 -29.390625 13.734375 -29.484375 C 14.984375 -29.546875 15.894531 -29.578125 16.46875 -29.578125 C 19.101562 -29.578125 21.410156 -29.097656 23.390625 -28.140625 C 25.378906 -27.179688 26.898438 -25.828125 27.953125 -24.078125 C 29.003906 -22.335938 29.53125 -20.316406 29.53125 -18.015625 C 29.53125 -16.984375 29.453125 -16.054688 29.296875 -15.234375 C 28.753906 -12.210938 27.59375 -9.53125 25.8125 -7.1875 C 24.039062 -4.84375 21.910156 -3.023438 19.421875 -1.734375 C 16.941406 -0.453125 14.414062 0.1875 11.84375 0.1875 Z M 11.65625 -0.75 C 14.675781 -0.75 17.289062 -1.9375 19.5 -4.3125 C 21.71875 -6.6875 23.207031 -9.984375 23.96875 -14.203125 C 24.1875 -15.421875 24.296875 -16.738281 24.296875 -18.15625 C 24.296875 -21.207031 23.632812 -23.71875 22.3125 -25.6875 C 20.988281 -27.65625 18.894531 -28.640625 16.03125 -28.640625 C 14.90625 -28.640625 14.101562 -28.410156 13.625 -27.953125 C 13.15625 -27.492188 12.828125 -26.695312 12.640625 -25.5625 L 8.875 -4.34375 C 8.78125 -3.832031 8.734375 -3.390625 8.734375 -3.015625 C 8.734375 -2.234375 8.953125 -1.660156 9.390625 -1.296875 C 9.828125 -0.929688 10.582031 -0.75 11.65625 -0.75 Z M 11.65625 -0.75 "/></g></g></g><g fill="#ff7403" fill-opacity="1"><g transform="translate(478.071534, 653.673731)"><g><path d="M 12.734375 -18.828125 C 13.929688 -18.828125 14.859375 -18.617188 15.515625 -18.203125 C 16.179688 -17.796875 16.515625 -17.234375 16.515625 -16.515625 C 16.515625 -15.097656 15.46875 -13.765625 13.375 -12.515625 C 11.28125 -11.273438 8.753906 -10.375 5.796875 -9.8125 C 5.703125 -9.125 5.65625 -8.445312 5.65625 -7.78125 C 5.65625 -5.894531 6.046875 -4.378906 6.828125 -3.234375 C 7.617188 -2.085938 8.785156 -1.515625 10.328125 -1.515625 C 10.992188 -1.515625 11.707031 -1.628906 12.46875 -1.859375 C 13.238281 -2.097656 13.941406 -2.46875 14.578125 -2.96875 L 14.625 -2.96875 C 14.71875 -2.96875 14.800781 -2.921875 14.875 -2.828125 C 14.957031 -2.734375 14.96875 -2.65625 14.90625 -2.59375 C 13.769531 -1.488281 12.570312 -0.6875 11.3125 -0.1875 C 10.0625 0.3125 8.804688 0.5625 7.546875 0.5625 C 5.378906 0.5625 3.75 -0.09375 2.65625 -1.40625 C 1.570312 -2.726562 1.03125 -4.398438 1.03125 -6.421875 C 1.03125 -7.109375 1.113281 -7.878906 1.28125 -8.734375 C 1.59375 -10.429688 2.289062 -12.046875 3.375 -13.578125 C 4.457031 -15.117188 5.816406 -16.378906 7.453125 -17.359375 C 9.085938 -18.335938 10.847656 -18.828125 12.734375 -18.828125 Z M 11.75 -15.28125 C 11.78125 -15.40625 11.796875 -15.59375 11.796875 -15.84375 C 11.796875 -16.382812 11.660156 -16.800781 11.390625 -17.09375 C 11.117188 -17.394531 10.75 -17.546875 10.28125 -17.546875 C 9.28125 -17.546875 8.394531 -16.898438 7.625 -15.609375 C 6.851562 -14.328125 6.273438 -12.644531 5.890625 -10.5625 C 9.515625 -11.507812 11.46875 -13.082031 11.75 -15.28125 Z M 11.75 -15.28125 "/></g></g></g><g fill="#ff7403" fill-opacity="1"><g transform="translate(509.063151, 653.673731)"><g><path d="M 8.921875 0.609375 C 7.535156 0.609375 6.367188 0.0820312 5.421875 -0.96875 C 4.484375 -2.019531 4.015625 -3.269531 4.015625 -4.71875 C 4.015625 -5.5625 4.191406 -6.429688 4.546875 -7.328125 C 4.910156 -8.222656 5.472656 -9.378906 6.234375 -10.796875 C 6.890625 -12.085938 7.3125 -12.921875 7.5 -13.296875 C 7.75 -13.804688 7.875 -14.140625 7.875 -14.296875 C 7.875 -14.515625 7.703125 -14.625 7.359375 -14.625 L 5.09375 -14.625 C 3.988281 -14.625 3.1875 -14.46875 2.6875 -14.15625 C 2.1875 -13.84375 1.8125 -13.320312 1.5625 -12.59375 C 1.5 -12.46875 1.40625 -12.40625 1.28125 -12.40625 C 1.175781 -12.40625 1.09375 -12.4375 1.03125 -12.5 C 0.96875 -12.5625 0.953125 -12.640625 0.984375 -12.734375 C 1.492188 -14.210938 1.941406 -15.328125 2.328125 -16.078125 C 2.722656 -16.835938 3.195312 -17.390625 3.75 -17.734375 C 4.300781 -18.078125 5.03125 -18.25 5.9375 -18.25 L 10.328125 -18.25 C 10.671875 -18.25 10.84375 -18.1875 10.84375 -18.0625 C 10.84375 -17.96875 10.796875 -17.84375 10.703125 -17.6875 C 10.046875 -16.144531 9.441406 -14.5625 8.890625 -12.9375 C 8.335938 -11.320312 7.984375 -9.984375 7.828125 -8.921875 C 7.765625 -8.566406 7.734375 -8.09375 7.734375 -7.5 C 7.734375 -6.113281 8.054688 -5.019531 8.703125 -4.21875 C 9.347656 -3.414062 10.207031 -3.015625 11.28125 -3.015625 C 12.15625 -3.015625 13.015625 -3.28125 13.859375 -3.8125 C 14.710938 -4.351562 15.445312 -5.101562 16.0625 -6.0625 C 16.675781 -7.019531 17.0625 -8.128906 17.21875 -9.390625 C 17.25 -9.609375 17.265625 -9.921875 17.265625 -10.328125 C 17.265625 -11.085938 17.140625 -11.722656 16.890625 -12.234375 C 16.640625 -12.753906 16.226562 -13.332031 15.65625 -13.96875 C 15.25 -14.40625 14.941406 -14.800781 14.734375 -15.15625 C 14.535156 -15.519531 14.4375 -15.925781 14.4375 -16.375 C 14.4375 -17.125 14.675781 -17.695312 15.15625 -18.09375 C 15.644531 -18.488281 16.269531 -18.6875 17.03125 -18.6875 C 17.875 -18.6875 18.507812 -18.398438 18.9375 -17.828125 C 19.363281 -17.265625 19.578125 -16.257812 19.578125 -14.8125 C 19.578125 -13.957031 19.546875 -13.265625 19.484375 -12.734375 C 19.265625 -10.410156 18.601562 -8.21875 17.5 -6.15625 C 16.394531 -4.09375 15.066406 -2.445312 13.515625 -1.21875 C 11.960938 0 10.429688 0.609375 8.921875 0.609375 Z M 8.921875 0.609375 "/></g></g></g><g fill="#ff7403" fill-opacity="1"><g transform="translate(544.347047, 653.673731)"><g><path d="M 12.734375 -18.828125 C 13.929688 -18.828125 14.859375 -18.617188 15.515625 -18.203125 C 16.179688 -17.796875 16.515625 -17.234375 16.515625 -16.515625 C 16.515625 -15.097656 15.46875 -13.765625 13.375 -12.515625 C 11.28125 -11.273438 8.753906 -10.375 5.796875 -9.8125 C 5.703125 -9.125 5.65625 -8.445312 5.65625 -7.78125 C 5.65625 -5.894531 6.046875 -4.378906 6.828125 -3.234375 C 7.617188 -2.085938 8.785156 -1.515625 10.328125 -1.515625 C 10.992188 -1.515625 11.707031 -1.628906 12.46875 -1.859375 C 13.238281 -2.097656 13.941406 -2.46875 14.578125 -2.96875 L 14.625 -2.96875 C 14.71875 -2.96875 14.800781 -2.921875 14.875 -2.828125 C 14.957031 -2.734375 14.96875 -2.65625 14.90625 -2.59375 C 13.769531 -1.488281 12.570312 -0.6875 11.3125 -0.1875 C 10.0625 0.3125 8.804688 0.5625 7.546875 0.5625 C 5.378906 0.5625 3.75 -0.09375 2.65625 -1.40625 C 1.570312 -2.726562 1.03125 -4.398438 1.03125 -6.421875 C 1.03125 -7.109375 1.113281 -7.878906 1.28125 -8.734375 C 1.59375 -10.429688 2.289062 -12.046875 3.375 -13.578125 C 4.457031 -15.117188 5.816406 -16.378906 7.453125 -17.359375 C 9.085938 -18.335938 10.847656 -18.828125 12.734375 -18.828125 Z M 11.75 -15.28125 C 11.78125 -15.40625 11.796875 -15.59375 11.796875 -15.84375 C 11.796875 -16.382812 11.660156 -16.800781 11.390625 -17.09375 C 11.117188 -17.394531 10.75 -17.546875 10.28125 -17.546875 C 9.28125 -17.546875 8.394531 -16.898438 7.625 -15.609375 C 6.851562 -14.328125 6.273438 -12.644531 5.890625 -10.5625 C 9.515625 -11.507812 11.46875 -13.082031 11.75 -15.28125 Z M 11.75 -15.28125 "/></g></g></g><g fill="#ff7403" fill-opacity="1"><g transform="translate(575.338665, 653.673731)"><g><path d="M 4.4375 0.421875 C 2.925781 0.421875 2.171875 -0.472656 2.171875 -2.265625 C 2.171875 -2.890625 2.234375 -3.535156 2.359375 -4.203125 L 6.703125 -27.78125 C 6.796875 -28.414062 6.84375 -28.9375 6.84375 -29.34375 C 6.84375 -30.25 6.539062 -30.703125 5.9375 -30.703125 C 5.5625 -30.703125 4.90625 -30.484375 3.96875 -30.046875 L 3.921875 -30.046875 C 3.753906 -30.046875 3.65625 -30.128906 3.625 -30.296875 C 3.59375 -30.472656 3.644531 -30.578125 3.78125 -30.609375 L 11.078125 -34.203125 L 11.1875 -34.203125 C 11.3125 -34.203125 11.425781 -34.15625 11.53125 -34.0625 C 11.644531 -33.96875 11.6875 -33.890625 11.65625 -33.828125 L 6.375 -4.203125 C 6.28125 -3.722656 6.234375 -3.328125 6.234375 -3.015625 C 6.234375 -2.328125 6.46875 -1.984375 6.9375 -1.984375 C 7.25 -1.984375 7.597656 -2.125 7.984375 -2.40625 C 8.378906 -2.6875 8.863281 -3.09375 9.4375 -3.625 C 9.5 -3.695312 9.5625 -3.734375 9.625 -3.734375 C 9.71875 -3.734375 9.796875 -3.675781 9.859375 -3.5625 C 9.921875 -3.445312 9.90625 -3.34375 9.8125 -3.25 C 8.738281 -2 7.789062 -1.070312 6.96875 -0.46875 C 6.15625 0.125 5.3125 0.421875 4.4375 0.421875 Z M 4.4375 0.421875 "/></g></g></g><g fill="#ff7403" fill-opacity="1"><g transform="translate(601.141817, 653.673731)"><g><path d="M 7.453125 0.65625 C 5.378906 0.65625 3.796875 -0.0078125 2.703125 -1.34375 C 1.617188 -2.675781 1.078125 -4.414062 1.078125 -6.5625 C 1.078125 -7.5 1.160156 -8.347656 1.328125 -9.109375 C 1.671875 -10.992188 2.351562 -12.675781 3.375 -14.15625 C 4.394531 -15.632812 5.628906 -16.78125 7.078125 -17.59375 C 8.523438 -18.414062 10.082031 -18.828125 11.75 -18.828125 C 13.851562 -18.828125 15.460938 -18.1875 16.578125 -16.90625 C 17.691406 -15.632812 18.25 -13.929688 18.25 -11.796875 C 18.25 -10.941406 18.15625 -10.046875 17.96875 -9.109375 C 17.5625 -7.023438 16.816406 -5.253906 15.734375 -3.796875 C 14.648438 -2.335938 13.375 -1.226562 11.90625 -0.46875 C 10.445312 0.28125 8.960938 0.65625 7.453125 0.65625 Z M 9.0625 -0.515625 C 10.0625 -0.515625 10.929688 -1.097656 11.671875 -2.265625 C 12.410156 -3.429688 12.953125 -5.019531 13.296875 -7.03125 C 13.515625 -8.257812 13.625 -9.5 13.625 -10.75 C 13.625 -12.800781 13.316406 -14.46875 12.703125 -15.75 C 12.097656 -17.039062 11.257812 -17.6875 10.1875 -17.6875 C 9.25 -17.6875 8.410156 -17.132812 7.671875 -16.03125 C 6.929688 -14.9375 6.367188 -13.300781 5.984375 -11.125 C 5.765625 -9.90625 5.65625 -8.664062 5.65625 -7.40625 C 5.65625 -5.363281 5.953125 -3.703125 6.546875 -2.421875 C 7.148438 -1.148438 7.988281 -0.515625 9.0625 -0.515625 Z M 9.0625 -0.515625 "/></g></g></g><g fill="#ff7403" fill-opacity="1"><g transform="translate(634.538995, 653.673731)"><g><path d="M 13.4375 -18.53125 C 15.070312 -18.53125 16.304688 -18.101562 17.140625 -17.25 C 17.972656 -16.40625 18.390625 -15.179688 18.390625 -13.578125 C 18.390625 -13.046875 18.34375 -12.5 18.25 -11.9375 C 17.9375 -9.832031 17.207031 -7.859375 16.0625 -6.015625 C 14.914062 -4.171875 13.515625 -2.695312 11.859375 -1.59375 C 10.210938 -0.5 8.539062 0.046875 6.84375 0.046875 C 6.332031 0.046875 5.703125 0.015625 4.953125 -0.046875 L 3.4375 8.390625 C 3.3125 9.148438 3.25 9.609375 3.25 9.765625 C 3.25 10.234375 3.359375 10.566406 3.578125 10.765625 C 3.804688 10.972656 4.171875 11.078125 4.671875 11.078125 C 4.828125 11.078125 5.15625 11.046875 5.65625 10.984375 C 5.78125 10.984375 5.863281 11.0625 5.90625 11.21875 C 5.957031 11.382812 5.921875 11.484375 5.796875 11.515625 L -3.15625 12.96875 C -3.25 13 -3.316406 12.921875 -3.359375 12.734375 C -3.410156 12.546875 -3.375 12.4375 -3.25 12.40625 C -2.625 12.25 -2.171875 12.066406 -1.890625 11.859375 C -1.609375 11.660156 -1.382812 11.335938 -1.21875 10.890625 C -1.0625 10.453125 -0.890625 9.734375 -0.703125 8.734375 L 3.34375 -13.875 C 2.6875 -13.488281 1.882812 -12.953125 0.9375 -12.265625 C 0.90625 -12.234375 0.859375 -12.21875 0.796875 -12.21875 C 0.671875 -12.21875 0.578125 -12.28125 0.515625 -12.40625 C 0.453125 -12.53125 0.484375 -12.640625 0.609375 -12.734375 C 1.867188 -13.742188 2.828125 -14.46875 3.484375 -14.90625 L 4.109375 -18.203125 C 4.109375 -18.265625 4.375 -18.457031 4.90625 -18.78125 C 5.789062 -19.3125 6.53125 -19.8125 7.125 -20.28125 C 7.71875 -20.75 8.09375 -21.285156 8.25 -21.890625 C 8.28125 -22.015625 8.382812 -22.0625 8.5625 -22.03125 C 8.738281 -22 8.8125 -21.921875 8.78125 -21.796875 L 7.96875 -17.3125 C 9.851562 -18.125 11.675781 -18.53125 13.4375 -18.53125 Z M 14.015625 -10.375 C 14.078125 -10.945312 14.109375 -11.375 14.109375 -11.65625 C 14.109375 -13.007812 13.800781 -14.109375 13.1875 -14.953125 C 12.570312 -15.804688 11.570312 -16.234375 10.1875 -16.234375 C 9.34375 -16.234375 8.523438 -16.117188 7.734375 -15.890625 L 5.28125 -2.03125 C 6.320312 -1.59375 7.421875 -1.375 8.578125 -1.375 C 10.085938 -1.375 11.28125 -2.179688 12.15625 -3.796875 C 13.039062 -5.421875 13.660156 -7.613281 14.015625 -10.375 Z M 14.015625 -10.375 "/></g></g></g><g fill="#ff7403" fill-opacity="1"><g transform="translate(667.794677, 653.673731)"><g><path d="M 12.734375 -18.828125 C 13.929688 -18.828125 14.859375 -18.617188 15.515625 -18.203125 C 16.179688 -17.796875 16.515625 -17.234375 16.515625 -16.515625 C 16.515625 -15.097656 15.46875 -13.765625 13.375 -12.515625 C 11.28125 -11.273438 8.753906 -10.375 5.796875 -9.8125 C 5.703125 -9.125 5.65625 -8.445312 5.65625 -7.78125 C 5.65625 -5.894531 6.046875 -4.378906 6.828125 -3.234375 C 7.617188 -2.085938 8.785156 -1.515625 10.328125 -1.515625 C 10.992188 -1.515625 11.707031 -1.628906 12.46875 -1.859375 C 13.238281 -2.097656 13.941406 -2.46875 14.578125 -2.96875 L 14.625 -2.96875 C 14.71875 -2.96875 14.800781 -2.921875 14.875 -2.828125 C 14.957031 -2.734375 14.96875 -2.65625 14.90625 -2.59375 C 13.769531 -1.488281 12.570312 -0.6875 11.3125 -0.1875 C 10.0625 0.3125 8.804688 0.5625 7.546875 0.5625 C 5.378906 0.5625 3.75 -0.09375 2.65625 -1.40625 C 1.570312 -2.726562 1.03125 -4.398438 1.03125 -6.421875 C 1.03125 -7.109375 1.113281 -7.878906 1.28125 -8.734375 C 1.59375 -10.429688 2.289062 -12.046875 3.375 -13.578125 C 4.457031 -15.117188 5.816406 -16.378906 7.453125 -17.359375 C 9.085938 -18.335938 10.847656 -18.828125 12.734375 -18.828125 Z M 11.75 -15.28125 C 11.78125 -15.40625 11.796875 -15.59375 11.796875 -15.84375 C 11.796875 -16.382812 11.660156 -16.800781 11.390625 -17.09375 C 11.117188 -17.394531 10.75 -17.546875 10.28125 -17.546875 C 9.28125 -17.546875 8.394531 -16.898438 7.625 -15.609375 C 6.851562 -14.328125 6.273438 -12.644531 5.890625 -10.5625 C 9.515625 -11.507812 11.46875 -13.082031 11.75 -15.28125 Z M 11.75 -15.28125 "/></g></g></g><g fill="#ff7403" fill-opacity="1"><g transform="translate(698.786283, 653.673731)"><g><path d="M 14.015625 -18.640625 C 14.828125 -18.640625 15.601562 -18.335938 16.34375 -17.734375 C 17.082031 -17.140625 17.390625 -16.460938 17.265625 -15.703125 C 17.203125 -15.234375 16.976562 -14.796875 16.59375 -14.390625 C 16.21875 -13.984375 15.75 -13.78125 15.1875 -13.78125 C 14.625 -13.78125 14.007812 -14.046875 13.34375 -14.578125 C 13.125 -14.734375 12.90625 -14.875 12.6875 -15 C 12.46875 -15.125 12.25 -15.1875 12.03125 -15.1875 C 11.5 -15.1875 10.835938 -14.351562 10.046875 -12.6875 C 9.265625 -11.019531 8.519531 -9.03125 7.8125 -6.71875 C 7.101562 -4.40625 6.59375 -2.367188 6.28125 -0.609375 L 6.28125 -0.5625 C 6.207031 -0.28125 5.953125 -0.0546875 5.515625 0.109375 C 5.078125 0.285156 4.445312 0.375 3.625 0.375 C 2.59375 0.375 2.078125 0.25 2.078125 0 C 2.109375 -0.21875 2.207031 -0.6875 2.375 -1.40625 C 2.550781 -2.132812 2.703125 -2.828125 2.828125 -3.484375 L 4.765625 -14.015625 C 4.828125 -14.515625 4.859375 -14.84375 4.859375 -15 C 4.859375 -15.882812 4.578125 -16.328125 4.015625 -16.328125 C 3.378906 -16.328125 2.484375 -15.695312 1.328125 -14.4375 C 1.296875 -14.40625 1.242188 -14.390625 1.171875 -14.390625 C 1.046875 -14.390625 0.953125 -14.441406 0.890625 -14.546875 C 0.828125 -14.660156 0.84375 -14.765625 0.9375 -14.859375 C 2.070312 -16.179688 3.085938 -17.140625 3.984375 -17.734375 C 4.878906 -18.335938 5.785156 -18.640625 6.703125 -18.640625 C 7.484375 -18.640625 8.046875 -18.425781 8.390625 -18 C 8.742188 -17.570312 8.921875 -16.945312 8.921875 -16.125 C 8.921875 -15.65625 8.875 -15.140625 8.78125 -14.578125 L 7.828125 -9.390625 C 9.679688 -15.554688 11.742188 -18.640625 14.015625 -18.640625 Z M 14.015625 -18.640625 "/></g></g></g></svg>