<svg xmlns="http://www.w3.org/2000/svg" xmlns:xlink="http://www.w3.org/1999/xlink" width="500" zoomAndPan="magnify" viewBox="0 0 375 374.999991" height="500" preserveAspectRatio="xMidYMid meet" version="1.0"><defs><clipPath id="e3cf4fc4d8"><path d="M 101 67 L 287 67 L 287 253 L 101 253 Z M 101 67 " clip-rule="nonzero"/></clipPath><clipPath id="cfac7e4610"><path d="M 75.59375 33.351562 L 337.425781 81.65625 L 297.558594 297.757812 L 35.726562 249.457031 Z M 75.59375 33.351562 " clip-rule="nonzero"/></clipPath><clipPath id="c1f6d9a83f"><path d="M 75.59375 33.351562 L 337.425781 81.65625 L 297.558594 297.757812 L 35.726562 249.457031 Z M 75.59375 33.351562 " clip-rule="nonzero"/></clipPath><clipPath id="7ee92ca61b"><path d="M 240 94 L 245 94 L 245 108 L 240 108 Z M 240 94 " clip-rule="nonzero"/></clipPath><clipPath id="d175e563c0"><path d="M 75.59375 33.351562 L 337.425781 81.65625 L 297.558594 297.757812 L 35.726562 249.457031 Z M 75.59375 33.351562 " clip-rule="nonzero"/></clipPath><clipPath id="387d0bc8ff"><path d="M 75.59375 33.351562 L 337.425781 81.65625 L 297.558594 297.757812 L 35.726562 249.457031 Z M 75.59375 33.351562 " clip-rule="nonzero"/></clipPath><clipPath id="b8e10f0de9"><path d="M 260 138 L 287 138 L 287 176 L 260 176 Z M 260 138 " clip-rule="nonzero"/></clipPath><clipPath id="911b379693"><path d="M 75.59375 33.351562 L 337.425781 81.65625 L 297.558594 297.757812 L 35.726562 249.457031 Z M 75.59375 33.351562 " clip-rule="nonzero"/></clipPath><clipPath id="824dad6b28"><path d="M 75.59375 33.351562 L 337.425781 81.65625 L 297.558594 297.757812 L 35.726562 249.457031 Z M 75.59375 33.351562 " clip-rule="nonzero"/></clipPath><clipPath id="b1e4880b03"><path d="M 106 124 L 115 124 L 115 148 L 106 148 Z M 106 124 " clip-rule="nonzero"/></clipPath><clipPath id="230407c06f"><path d="M 75.59375 33.351562 L 337.425781 81.65625 L 297.558594 297.757812 L 35.726562 249.457031 Z M 75.59375 33.351562 " clip-rule="nonzero"/></clipPath><clipPath id="9549a94381"><path d="M 75.59375 33.351562 L 337.425781 81.65625 L 297.558594 297.757812 L 35.726562 249.457031 Z M 75.59375 33.351562 " clip-rule="nonzero"/></clipPath><clipPath id="7e7924e716"><path d="M 124 201 L 153 201 L 153 215 L 124 215 Z M 124 201 " clip-rule="nonzero"/></clipPath><clipPath id="f0c94746ba"><path d="M 75.59375 33.351562 L 337.425781 81.65625 L 297.558594 297.757812 L 35.726562 249.457031 Z M 75.59375 33.351562 " clip-rule="nonzero"/></clipPath><clipPath id="c1c90bc6fb"><path d="M 75.59375 33.351562 L 337.425781 81.65625 L 297.558594 297.757812 L 35.726562 249.457031 Z M 75.59375 33.351562 " clip-rule="nonzero"/></clipPath><clipPath id="404a473ae8"><path d="M 151 199 L 273 199 L 273 253 L 151 253 Z M 151 199 " clip-rule="nonzero"/></clipPath><clipPath id="2f8471e116"><path d="M 75.59375 33.351562 L 337.425781 81.65625 L 297.558594 297.757812 L 35.726562 249.457031 Z M 75.59375 33.351562 " clip-rule="nonzero"/></clipPath><clipPath id="f43c900d1f"><path d="M 75.59375 33.351562 L 337.425781 81.65625 L 297.558594 297.757812 L 35.726562 249.457031 Z M 75.59375 33.351562 " clip-rule="nonzero"/></clipPath><clipPath id="37058fccc3"><path d="M 101 171 L 128 171 L 128 188 L 101 188 Z M 101 171 " clip-rule="nonzero"/></clipPath><clipPath id="5290f93b82"><path d="M 75.59375 33.351562 L 337.425781 81.65625 L 297.558594 297.757812 L 35.726562 249.457031 Z M 75.59375 33.351562 " clip-rule="nonzero"/></clipPath><clipPath id="77da79939b"><path d="M 75.59375 33.351562 L 337.425781 81.65625 L 297.558594 297.757812 L 35.726562 249.457031 Z M 75.59375 33.351562 " clip-rule="nonzero"/></clipPath><clipPath id="9dbd093f2e"><path d="M 271 167 L 289 167 L 289 188 L 271 188 Z M 271 167 " clip-rule="nonzero"/></clipPath><clipPath id="e5f30e7acd"><path d="M 75.59375 33.351562 L 337.425781 81.65625 L 297.558594 297.757812 L 35.726562 249.457031 Z M 75.59375 33.351562 " clip-rule="nonzero"/></clipPath><clipPath id="db8c05f0a5"><path d="M 75.59375 33.351562 L 337.425781 81.65625 L 297.558594 297.757812 L 35.726562 249.457031 Z M 75.59375 33.351562 " clip-rule="nonzero"/></clipPath><clipPath id="f05a0ab75a"><path d="M 271 173 L 289 173 L 289 188 L 271 188 Z M 271 173 " clip-rule="nonzero"/></clipPath><clipPath id="2ef7c885d5"><path d="M 75.59375 33.351562 L 337.425781 81.65625 L 297.558594 297.757812 L 35.726562 249.457031 Z M 75.59375 33.351562 " clip-rule="nonzero"/></clipPath><clipPath id="5882961ac4"><path d="M 75.59375 33.351562 L 337.425781 81.65625 L 297.558594 297.757812 L 35.726562 249.457031 Z M 75.59375 33.351562 " clip-rule="nonzero"/></clipPath><clipPath id="4d5ee49a0f"><path d="M 128 80 L 135 80 L 135 87 L 128 87 Z M 128 80 " clip-rule="nonzero"/></clipPath><clipPath id="d539012249"><path d="M 75.59375 33.351562 L 337.425781 81.65625 L 297.558594 297.757812 L 35.726562 249.457031 Z M 75.59375 33.351562 " clip-rule="nonzero"/></clipPath><clipPath id="70079de240"><path d="M 75.59375 33.351562 L 337.425781 81.65625 L 297.558594 297.757812 L 35.726562 249.457031 Z M 75.59375 33.351562 " clip-rule="nonzero"/></clipPath><clipPath id="35f581fda2"><path d="M 128 81 L 135 81 L 135 87 L 128 87 Z M 128 81 " clip-rule="nonzero"/></clipPath><clipPath id="691ea3570f"><path d="M 75.59375 33.351562 L 337.425781 81.65625 L 297.558594 297.757812 L 35.726562 249.457031 Z M 75.59375 33.351562 " clip-rule="nonzero"/></clipPath><clipPath id="57ee0ccf90"><path d="M 75.59375 33.351562 L 337.425781 81.65625 L 297.558594 297.757812 L 35.726562 249.457031 Z M 75.59375 33.351562 " clip-rule="nonzero"/></clipPath><clipPath id="fa71ec9a15"><path d="M 238 72 L 254 72 L 254 87 L 238 87 Z M 238 72 " clip-rule="nonzero"/></clipPath><clipPath id="c3cb737485"><path d="M 75.59375 33.351562 L 337.425781 81.65625 L 297.558594 297.757812 L 35.726562 249.457031 Z M 75.59375 33.351562 " clip-rule="nonzero"/></clipPath><clipPath id="4da7e45f49"><path d="M 75.59375 33.351562 L 337.425781 81.65625 L 297.558594 297.757812 L 35.726562 249.457031 Z M 75.59375 33.351562 " clip-rule="nonzero"/></clipPath><clipPath id="58a6661027"><path d="M 238 76 L 254 76 L 254 87 L 238 87 Z M 238 76 " clip-rule="nonzero"/></clipPath><clipPath id="ec268b4d2f"><path d="M 75.59375 33.351562 L 337.425781 81.65625 L 297.558594 297.757812 L 35.726562 249.457031 Z M 75.59375 33.351562 " clip-rule="nonzero"/></clipPath><clipPath id="6ce9a44844"><path d="M 75.59375 33.351562 L 337.425781 81.65625 L 297.558594 297.757812 L 35.726562 249.457031 Z M 75.59375 33.351562 " clip-rule="nonzero"/></clipPath><clipPath id="16683b9ffc"><path d="M 322 112 L 332 112 L 332 121 L 322 121 Z M 322 112 " clip-rule="nonzero"/></clipPath><clipPath id="31a9cfdf0b"><path d="M 75.59375 33.351562 L 337.425781 81.65625 L 297.558594 297.757812 L 35.726562 249.457031 Z M 75.59375 33.351562 " clip-rule="nonzero"/></clipPath><clipPath id="069476d7ea"><path d="M 75.59375 33.351562 L 337.425781 81.65625 L 297.558594 297.757812 L 35.726562 249.457031 Z M 75.59375 33.351562 " clip-rule="nonzero"/></clipPath><clipPath id="142ddecbc0"><path d="M 322 114 L 332 114 L 332 121 L 322 121 Z M 322 114 " clip-rule="nonzero"/></clipPath><clipPath id="068b6a2dc3"><path d="M 75.59375 33.351562 L 337.425781 81.65625 L 297.558594 297.757812 L 35.726562 249.457031 Z M 75.59375 33.351562 " clip-rule="nonzero"/></clipPath><clipPath id="ff36ac5902"><path d="M 75.59375 33.351562 L 337.425781 81.65625 L 297.558594 297.757812 L 35.726562 249.457031 Z M 75.59375 33.351562 " clip-rule="nonzero"/></clipPath><clipPath id="554e0c4825"><path d="M 255 111 L 264 111 L 264 121 L 255 121 Z M 255 111 " clip-rule="nonzero"/></clipPath><clipPath id="7ef33f897a"><path d="M 75.59375 33.351562 L 337.425781 81.65625 L 297.558594 297.757812 L 35.726562 249.457031 Z M 75.59375 33.351562 " clip-rule="nonzero"/></clipPath><clipPath id="da4ef2565b"><path d="M 75.59375 33.351562 L 337.425781 81.65625 L 297.558594 297.757812 L 35.726562 249.457031 Z M 75.59375 33.351562 " clip-rule="nonzero"/></clipPath><clipPath id="d164bcac13"><path d="M 255 114 L 264 114 L 264 121 L 255 121 Z M 255 114 " clip-rule="nonzero"/></clipPath><clipPath id="2fb363fe6d"><path d="M 75.59375 33.351562 L 337.425781 81.65625 L 297.558594 297.757812 L 35.726562 249.457031 Z M 75.59375 33.351562 " clip-rule="nonzero"/></clipPath><clipPath id="aa3092cdb9"><path d="M 75.59375 33.351562 L 337.425781 81.65625 L 297.558594 297.757812 L 35.726562 249.457031 Z M 75.59375 33.351562 " clip-rule="nonzero"/></clipPath><clipPath id="27607719d5"><path d="M 85 170 L 94 170 L 94 180 L 85 180 Z M 85 170 " clip-rule="nonzero"/></clipPath><clipPath id="e4f700d559"><path d="M 75.59375 33.351562 L 337.425781 81.65625 L 297.558594 297.757812 L 35.726562 249.457031 Z M 75.59375 33.351562 " clip-rule="nonzero"/></clipPath><clipPath id="664b552871"><path d="M 75.59375 33.351562 L 337.425781 81.65625 L 297.558594 297.757812 L 35.726562 249.457031 Z M 75.59375 33.351562 " clip-rule="nonzero"/></clipPath><clipPath id="076a0fa59a"><path d="M 85 173 L 94 173 L 94 180 L 85 180 Z M 85 173 " clip-rule="nonzero"/></clipPath><clipPath id="ef5f28bbcf"><path d="M 75.59375 33.351562 L 337.425781 81.65625 L 297.558594 297.757812 L 35.726562 249.457031 Z M 75.59375 33.351562 " clip-rule="nonzero"/></clipPath><clipPath id="a65dc9c5f3"><path d="M 75.59375 33.351562 L 337.425781 81.65625 L 297.558594 297.757812 L 35.726562 249.457031 Z M 75.59375 33.351562 " clip-rule="nonzero"/></clipPath><clipPath id="3206293651"><path d="M 213 253 L 222 253 L 222 262 L 213 262 Z M 213 253 " clip-rule="nonzero"/></clipPath><clipPath id="48ced7a5bd"><path d="M 75.59375 33.351562 L 337.425781 81.65625 L 297.558594 297.757812 L 35.726562 249.457031 Z M 75.59375 33.351562 " clip-rule="nonzero"/></clipPath><clipPath id="354b65b346"><path d="M 75.59375 33.351562 L 337.425781 81.65625 L 297.558594 297.757812 L 35.726562 249.457031 Z M 75.59375 33.351562 " clip-rule="nonzero"/></clipPath><clipPath id="d127281f56"><path d="M 213 255 L 222 255 L 222 262 L 213 262 Z M 213 255 " clip-rule="nonzero"/></clipPath><clipPath id="f1a96b2112"><path d="M 75.59375 33.351562 L 337.425781 81.65625 L 297.558594 297.757812 L 35.726562 249.457031 Z M 75.59375 33.351562 " clip-rule="nonzero"/></clipPath><clipPath id="7438859ec6"><path d="M 75.59375 33.351562 L 337.425781 81.65625 L 297.558594 297.757812 L 35.726562 249.457031 Z M 75.59375 33.351562 " clip-rule="nonzero"/></clipPath><clipPath id="ecc1d7fe64"><path d="M 65 82 L 77 82 L 77 93 L 65 93 Z M 65 82 " clip-rule="nonzero"/></clipPath><clipPath id="8a625b2dc7"><path d="M 75.59375 33.351562 L 337.425781 81.65625 L 297.558594 297.757812 L 35.726562 249.457031 Z M 75.59375 33.351562 " clip-rule="nonzero"/></clipPath><clipPath id="33dda06f0e"><path d="M 75.59375 33.351562 L 337.425781 81.65625 L 297.558594 297.757812 L 35.726562 249.457031 Z M 75.59375 33.351562 " clip-rule="nonzero"/></clipPath><clipPath id="a269d9ea92"><path d="M 65 85 L 77 85 L 77 93 L 65 93 Z M 65 85 " clip-rule="nonzero"/></clipPath><clipPath id="deb41b6122"><path d="M 75.59375 33.351562 L 337.425781 81.65625 L 297.558594 297.757812 L 35.726562 249.457031 Z M 75.59375 33.351562 " clip-rule="nonzero"/></clipPath><clipPath id="aceb2dd079"><path d="M 75.59375 33.351562 L 337.425781 81.65625 L 297.558594 297.757812 L 35.726562 249.457031 Z M 75.59375 33.351562 " clip-rule="nonzero"/></clipPath><clipPath id="60861d538d"><path d="M 99 221 L 103 221 L 103 225 L 99 225 Z M 99 221 " clip-rule="nonzero"/></clipPath><clipPath id="f43693b0f5"><path d="M 75.59375 33.351562 L 337.425781 81.65625 L 297.558594 297.757812 L 35.726562 249.457031 Z M 75.59375 33.351562 " clip-rule="nonzero"/></clipPath><clipPath id="36620b23d6"><path d="M 75.59375 33.351562 L 337.425781 81.65625 L 297.558594 297.757812 L 35.726562 249.457031 Z M 75.59375 33.351562 " clip-rule="nonzero"/></clipPath><clipPath id="c81aa3a411"><path d="M 99 222 L 103 222 L 103 226 L 99 226 Z M 99 222 " clip-rule="nonzero"/></clipPath><clipPath id="cc98b38553"><path d="M 75.59375 33.351562 L 337.425781 81.65625 L 297.558594 297.757812 L 35.726562 249.457031 Z M 75.59375 33.351562 " clip-rule="nonzero"/></clipPath><clipPath id="4deff44031"><path d="M 75.59375 33.351562 L 337.425781 81.65625 L 297.558594 297.757812 L 35.726562 249.457031 Z M 75.59375 33.351562 " clip-rule="nonzero"/></clipPath><clipPath id="92ce3620f4"><path d="M 80 91 L 104 91 L 104 115 L 80 115 Z M 80 91 " clip-rule="nonzero"/></clipPath><clipPath id="f57b48d8ce"><path d="M 75.59375 33.351562 L 337.425781 81.65625 L 297.558594 297.757812 L 35.726562 249.457031 Z M 75.59375 33.351562 " clip-rule="nonzero"/></clipPath><clipPath id="9dc8eaac19"><path d="M 75.59375 33.351562 L 337.425781 81.65625 L 297.558594 297.757812 L 35.726562 249.457031 Z M 75.59375 33.351562 " clip-rule="nonzero"/></clipPath><clipPath id="a5e38110fb"><path d="M 80 98 L 104 98 L 104 115 L 80 115 Z M 80 98 " clip-rule="nonzero"/></clipPath><clipPath id="1d19588c02"><path d="M 75.59375 33.351562 L 337.425781 81.65625 L 297.558594 297.757812 L 35.726562 249.457031 Z M 75.59375 33.351562 " clip-rule="nonzero"/></clipPath><clipPath id="01d547c17e"><path d="M 75.59375 33.351562 L 337.425781 81.65625 L 297.558594 297.757812 L 35.726562 249.457031 Z M 75.59375 33.351562 " clip-rule="nonzero"/></clipPath><clipPath id="cf2f7266ff"><path d="M 296 124 L 319 124 L 319 141 L 296 141 Z M 296 124 " clip-rule="nonzero"/></clipPath><clipPath id="8396f73137"><path d="M 75.59375 33.351562 L 337.425781 81.65625 L 297.558594 297.757812 L 35.726562 249.457031 Z M 75.59375 33.351562 " clip-rule="nonzero"/></clipPath><clipPath id="1270bd4b67"><path d="M 75.59375 33.351562 L 337.425781 81.65625 L 297.558594 297.757812 L 35.726562 249.457031 Z M 75.59375 33.351562 " clip-rule="nonzero"/></clipPath><clipPath id="1057ad094e"><path d="M 296 124 L 313 124 L 313 141 L 296 141 Z M 296 124 " clip-rule="nonzero"/></clipPath><clipPath id="3e72ec1dc4"><path d="M 75.59375 33.351562 L 337.425781 81.65625 L 297.558594 297.757812 L 35.726562 249.457031 Z M 75.59375 33.351562 " clip-rule="nonzero"/></clipPath><clipPath id="91de5eb588"><path d="M 75.59375 33.351562 L 337.425781 81.65625 L 297.558594 297.757812 L 35.726562 249.457031 Z M 75.59375 33.351562 " clip-rule="nonzero"/></clipPath><clipPath id="cbc6eec895"><path d="M 198 64 L 206 64 L 206 72 L 198 72 Z M 198 64 " clip-rule="nonzero"/></clipPath><clipPath id="c19599920d"><path d="M 75.59375 33.351562 L 337.425781 81.65625 L 297.558594 297.757812 L 35.726562 249.457031 Z M 75.59375 33.351562 " clip-rule="nonzero"/></clipPath><clipPath id="2423b6f2b6"><path d="M 75.59375 33.351562 L 337.425781 81.65625 L 297.558594 297.757812 L 35.726562 249.457031 Z M 75.59375 33.351562 " clip-rule="nonzero"/></clipPath><clipPath id="8986130238"><path d="M 198 66 L 206 66 L 206 72 L 198 72 Z M 198 66 " clip-rule="nonzero"/></clipPath><clipPath id="74d7a1dfc1"><path d="M 75.59375 33.351562 L 337.425781 81.65625 L 297.558594 297.757812 L 35.726562 249.457031 Z M 75.59375 33.351562 " clip-rule="nonzero"/></clipPath><clipPath id="bb16248452"><path d="M 75.59375 33.351562 L 337.425781 81.65625 L 297.558594 297.757812 L 35.726562 249.457031 Z M 75.59375 33.351562 " clip-rule="nonzero"/></clipPath><clipPath id="f252f3e765"><path d="M 71 144 L 90 144 L 90 163 L 71 163 Z M 71 144 " clip-rule="nonzero"/></clipPath><clipPath id="047870ff4d"><path d="M 75.59375 33.351562 L 337.425781 81.65625 L 297.558594 297.757812 L 35.726562 249.457031 Z M 75.59375 33.351562 " clip-rule="nonzero"/></clipPath><clipPath id="c1c4968306"><path d="M 75.59375 33.351562 L 337.425781 81.65625 L 297.558594 297.757812 L 35.726562 249.457031 Z M 75.59375 33.351562 " clip-rule="nonzero"/></clipPath><clipPath id="0631b53447"><path d="M 71 149 L 90 149 L 90 163 L 71 163 Z M 71 149 " clip-rule="nonzero"/></clipPath><clipPath id="3cab35cd7d"><path d="M 75.59375 33.351562 L 337.425781 81.65625 L 297.558594 297.757812 L 35.726562 249.457031 Z M 75.59375 33.351562 " clip-rule="nonzero"/></clipPath><clipPath id="8eafdb4e8b"><path d="M 75.59375 33.351562 L 337.425781 81.65625 L 297.558594 297.757812 L 35.726562 249.457031 Z M 75.59375 33.351562 " clip-rule="nonzero"/></clipPath><clipPath id="cc354fd328"><path d="M 170 251 L 178 251 L 178 259 L 170 259 Z M 170 251 " clip-rule="nonzero"/></clipPath><clipPath id="806c2fd7fb"><path d="M 75.59375 33.351562 L 337.425781 81.65625 L 297.558594 297.757812 L 35.726562 249.457031 Z M 75.59375 33.351562 " clip-rule="nonzero"/></clipPath><clipPath id="89c40001a9"><path d="M 75.59375 33.351562 L 337.425781 81.65625 L 297.558594 297.757812 L 35.726562 249.457031 Z M 75.59375 33.351562 " clip-rule="nonzero"/></clipPath><clipPath id="9cbed0f899"><path d="M 170 253 L 178 253 L 178 259 L 170 259 Z M 170 253 " clip-rule="nonzero"/></clipPath><clipPath id="0eacf1d6e2"><path d="M 75.59375 33.351562 L 337.425781 81.65625 L 297.558594 297.757812 L 35.726562 249.457031 Z M 75.59375 33.351562 " clip-rule="nonzero"/></clipPath><clipPath id="55bf8064a4"><path d="M 75.59375 33.351562 L 337.425781 81.65625 L 297.558594 297.757812 L 35.726562 249.457031 Z M 75.59375 33.351562 " clip-rule="nonzero"/></clipPath><clipPath id="9b20ff6d62"><path d="M 110 217 L 129 217 L 129 236 L 110 236 Z M 110 217 " clip-rule="nonzero"/></clipPath><clipPath id="94df64e89e"><path d="M 75.59375 33.351562 L 337.425781 81.65625 L 297.558594 297.757812 L 35.726562 249.457031 Z M 75.59375 33.351562 " clip-rule="nonzero"/></clipPath><clipPath id="0aea040ed9"><path d="M 75.59375 33.351562 L 337.425781 81.65625 L 297.558594 297.757812 L 35.726562 249.457031 Z M 75.59375 33.351562 " clip-rule="nonzero"/></clipPath><clipPath id="7b4f955446"><path d="M 110 222 L 129 222 L 129 236 L 110 236 Z M 110 222 " clip-rule="nonzero"/></clipPath><clipPath id="af351afecc"><path d="M 75.59375 33.351562 L 337.425781 81.65625 L 297.558594 297.757812 L 35.726562 249.457031 Z M 75.59375 33.351562 " clip-rule="nonzero"/></clipPath><clipPath id="1f9a21d356"><path d="M 75.59375 33.351562 L 337.425781 81.65625 L 297.558594 297.757812 L 35.726562 249.457031 Z M 75.59375 33.351562 " clip-rule="nonzero"/></clipPath><clipPath id="d4694ad6bc"><path d="M 278 210 L 290 210 L 290 224 L 278 224 Z M 278 210 " clip-rule="nonzero"/></clipPath><clipPath id="cfe25b81d9"><path d="M 75.59375 33.351562 L 337.425781 81.65625 L 297.558594 297.757812 L 35.726562 249.457031 Z M 75.59375 33.351562 " clip-rule="nonzero"/></clipPath><clipPath id="10c503005d"><path d="M 75.59375 33.351562 L 337.425781 81.65625 L 297.558594 297.757812 L 35.726562 249.457031 Z M 75.59375 33.351562 " clip-rule="nonzero"/></clipPath><clipPath id="8761f450b7"><path d="M 278 214 L 290 214 L 290 224 L 278 224 Z M 278 214 " clip-rule="nonzero"/></clipPath><clipPath id="8c3d460242"><path d="M 75.59375 33.351562 L 337.425781 81.65625 L 297.558594 297.757812 L 35.726562 249.457031 Z M 75.59375 33.351562 " clip-rule="nonzero"/></clipPath><clipPath id="50ddf08ed1"><path d="M 75.59375 33.351562 L 337.425781 81.65625 L 297.558594 297.757812 L 35.726562 249.457031 Z M 75.59375 33.351562 " clip-rule="nonzero"/></clipPath><clipPath id="6754c2df6a"><path d="M 264 69 L 271 69 L 271 77 L 264 77 Z M 264 69 " clip-rule="nonzero"/></clipPath><clipPath id="5477acd930"><path d="M 75.59375 33.351562 L 337.425781 81.65625 L 297.558594 297.757812 L 35.726562 249.457031 Z M 75.59375 33.351562 " clip-rule="nonzero"/></clipPath><clipPath id="6202a2e988"><path d="M 75.59375 33.351562 L 337.425781 81.65625 L 297.558594 297.757812 L 35.726562 249.457031 Z M 75.59375 33.351562 " clip-rule="nonzero"/></clipPath><clipPath id="88d009a070"><path d="M 264 71 L 271 71 L 271 77 L 264 77 Z M 264 71 " clip-rule="nonzero"/></clipPath><clipPath id="6a3617d278"><path d="M 75.59375 33.351562 L 337.425781 81.65625 L 297.558594 297.757812 L 35.726562 249.457031 Z M 75.59375 33.351562 " clip-rule="nonzero"/></clipPath><clipPath id="7645b368c9"><path d="M 75.59375 33.351562 L 337.425781 81.65625 L 297.558594 297.757812 L 35.726562 249.457031 Z M 75.59375 33.351562 " clip-rule="nonzero"/></clipPath><clipPath id="098784152a"><path d="M 190 264 L 205 264 L 205 279 L 190 279 Z M 190 264 " clip-rule="nonzero"/></clipPath><clipPath id="e053c0bf05"><path d="M 75.59375 33.351562 L 337.425781 81.65625 L 297.558594 297.757812 L 35.726562 249.457031 Z M 75.59375 33.351562 " clip-rule="nonzero"/></clipPath><clipPath id="eee2527ede"><path d="M 75.59375 33.351562 L 337.425781 81.65625 L 297.558594 297.757812 L 35.726562 249.457031 Z M 75.59375 33.351562 " clip-rule="nonzero"/></clipPath><clipPath id="e8ca06f31a"><path d="M 190 268 L 205 268 L 205 279 L 190 279 Z M 190 268 " clip-rule="nonzero"/></clipPath><clipPath id="c89d1993f7"><path d="M 75.59375 33.351562 L 337.425781 81.65625 L 297.558594 297.757812 L 35.726562 249.457031 Z M 75.59375 33.351562 " clip-rule="nonzero"/></clipPath><clipPath id="d7991289f8"><path d="M 75.59375 33.351562 L 337.425781 81.65625 L 297.558594 297.757812 L 35.726562 249.457031 Z M 75.59375 33.351562 " clip-rule="nonzero"/></clipPath><clipPath id="07aa8613b5"><path d="M 224 224 L 251 224 L 251 245 L 224 245 Z M 224 224 " clip-rule="nonzero"/></clipPath><clipPath id="8e11ea2d9e"><path d="M 75.59375 33.351562 L 337.425781 81.65625 L 297.558594 297.757812 L 35.726562 249.457031 Z M 75.59375 33.351562 " clip-rule="nonzero"/></clipPath><clipPath id="5f57e86ac5"><path d="M 75.59375 33.351562 L 337.425781 81.65625 L 297.558594 297.757812 L 35.726562 249.457031 Z M 75.59375 33.351562 " clip-rule="nonzero"/></clipPath><clipPath id="9b0115ac13"><path d="M 224 229 L 251 229 L 251 245 L 224 245 Z M 224 229 " clip-rule="nonzero"/></clipPath><clipPath id="0c9d638bac"><path d="M 75.59375 33.351562 L 337.425781 81.65625 L 297.558594 297.757812 L 35.726562 249.457031 Z M 75.59375 33.351562 " clip-rule="nonzero"/></clipPath><clipPath id="125d248904"><path d="M 75.59375 33.351562 L 337.425781 81.65625 L 297.558594 297.757812 L 35.726562 249.457031 Z M 75.59375 33.351562 " clip-rule="nonzero"/></clipPath></defs><rect x="-37.5" width="450" fill="#ffffff" y="-37.499999" height="449.999989" fill-opacity="1"/><rect x="-37.5" width="450" fill="#000000" y="-37.499999" height="449.999989" fill-opacity="1"/><g clip-path="url(#e3cf4fc4d8)"><g clip-path="url(#cfac7e4610)"><g clip-path="url(#c1f6d9a83f)"><path fill="#ff7403" d="M 260.769531 179.863281 C 259.878906 173.839844 263.363281 168.027344 267.710938 163.777344 C 269.082031 162.4375 270.5625 161.183594 272.058594 159.984375 C 275.285156 157.386719 278.640625 154.960938 281.507812 151.960938 C 284.300781 149.058594 286.683594 145.273438 286.238281 141.285156 C 285.777344 137.132812 282.296875 133.824219 278.476562 132.097656 C 274.632812 130.398438 270.394531 129.886719 266.300781 128.9375 C 258.074219 127 247.683594 122.804688 242.539062 115.703125 C 240.847656 113.335938 239.925781 110.285156 240.820312 107.523438 C 241.882812 104.257812 244.671875 101.242188 244.570312 97.644531 C 244.417969 92.378906 238.8125 89.332031 234.058594 90.390625 C 231.074219 91.054688 228.375 92.644531 225.421875 93.390625 C 222.324219 94.1875 219.074219 94.046875 215.898438 93.761719 C 211.738281 93.371094 207.480469 92.78125 203.847656 90.703125 C 195.851562 86.191406 194.140625 76.488281 187.300781 70.894531 C 183.238281 67.601562 177.609375 66.296875 172.515625 67.519531 C 167.417969 68.75 162.976562 72.414062 160.859375 77.230469 C 159.050781 81.296875 158.898438 85.945312 157.457031 90.164062 C 152.550781 104.5 134.574219 96.203125 123.859375 100.113281 C 111.292969 104.75 103.792969 120.007812 107.828125 132.761719 C 109.167969 137 111.566406 140.863281 113.121094 145.023438 C 114.667969 149.222656 115.273438 154.121094 113.0625 158.003906 C 110.480469 162.550781 104.726562 164.566406 102.171875 169.105469 C 99.53125 173.824219 101.628906 180.554688 106.484375 182.9375 C 111.894531 185.601562 127.242188 181.710938 127.558594 190.847656 C 127.625 192.796875 126.917969 194.6875 126.273438 196.535156 C 125.496094 198.792969 124.78125 201.132812 124.65625 203.496094 C 124.527344 205.871094 125.023438 208.351562 126.453125 210.292969 C 128.277344 212.714844 131.402344 213.90625 134.4375 214.078125 C 138.328125 214.300781 152.320312 209.515625 152.484375 216.957031 C 152.511719 218.292969 151.984375 219.5625 151.539062 220.804688 C 150.011719 225.082031 152.710938 229.078125 157.164062 230.015625 C 161.472656 230.925781 165.441406 228.238281 169.730469 228.417969 C 174 228.601562 178.09375 230.261719 180.191406 234.1875 C 182.277344 238.066406 182.925781 242.597656 184.945312 246.5 C 188.03125 252.507812 194.417969 254.902344 199.8125 250.609375 C 205.433594 246.179688 208.96875 239.648438 212.511719 233.535156 C 216.902344 225.949219 222.273438 218.011719 230.632812 215.414062 C 238.042969 213.089844 245.980469 215.585938 253.734375 215.953125 C 261.488281 216.316406 270.855469 212.992188 272.144531 205.324219 C 273.726562 195.96875 262.175781 189.277344 260.769531 179.863281 " fill-opacity="1" fill-rule="nonzero"/></g></g></g><g clip-path="url(#7ee92ca61b)"><g clip-path="url(#d175e563c0)"><g clip-path="url(#387d0bc8ff)"><path fill="#ff7403" d="M 240.347656 101.191406 C 239.691406 103.191406 240.011719 105.371094 240.882812 107.316406 C 241.996094 104.144531 244.664062 101.191406 244.570312 97.644531 C 244.527344 96.386719 244.179688 95.226562 243.589844 94.246094 C 242.753906 96.628906 241.109375 98.824219 240.347656 101.191406 " fill-opacity="1" fill-rule="nonzero"/></g></g></g><g clip-path="url(#b8e10f0de9)"><g clip-path="url(#911b379693)"><g clip-path="url(#824dad6b28)"><path fill="#ff7403" d="M 281.03125 145.65625 C 278.167969 148.628906 274.808594 151.0625 271.578125 153.667969 C 270.078125 154.859375 268.609375 156.097656 267.226562 157.457031 C 262.894531 161.671875 259.394531 167.546875 260.296875 173.515625 C 260.40625 174.289062 260.585938 175.003906 260.8125 175.722656 C 261.546875 171.257812 264.378906 167.035156 267.699219 163.800781 C 269.082031 162.4375 270.558594 161.199219 272.054688 160.007812 C 275.285156 157.402344 278.640625 154.972656 281.511719 151.953125 C 284.296875 149.082031 286.675781 145.304688 286.234375 141.300781 C 286.125 140.339844 285.859375 139.386719 285.457031 138.523438 C 284.722656 141.171875 282.976562 143.597656 281.03125 145.65625 " fill-opacity="1" fill-rule="nonzero"/></g></g></g><g clip-path="url(#b1e4880b03)"><g clip-path="url(#230407c06f)"><g clip-path="url(#9549a94381)"><path fill="#ff7403" d="M 113.113281 145.054688 C 113.417969 145.898438 113.699219 146.738281 113.910156 147.640625 C 114.300781 144.671875 113.683594 141.546875 112.636719 138.730469 C 111.089844 134.539062 108.691406 130.675781 107.34375 126.445312 C 107.113281 125.691406 106.925781 124.945312 106.769531 124.203125 C 106.609375 127.097656 106.953125 129.976562 107.828125 132.773438 C 109.160156 137.03125 111.566406 140.863281 113.113281 145.054688 " fill-opacity="1" fill-rule="nonzero"/></g></g></g><g clip-path="url(#7e7924e716)"><g clip-path="url(#f0c94746ba)"><g clip-path="url(#c1c90bc6fb)"><path fill="#ff7403" d="M 152.007812 210.621094 C 151.835938 203.207031 137.851562 207.976562 133.964844 207.738281 C 130.929688 207.554688 127.800781 206.382812 125.984375 203.925781 C 125.5 203.285156 125.117188 202.585938 124.839844 201.820312 C 124.753906 202.367188 124.679688 202.949219 124.65625 203.496094 C 124.523438 205.886719 125.023438 208.359375 126.453125 210.292969 C 128.277344 212.707031 131.402344 213.914062 134.433594 214.101562 C 137.628906 214.28125 147.648438 211.082031 151.210938 214.078125 C 151.609375 212.964844 152.03125 211.816406 152.007812 210.621094 " fill-opacity="1" fill-rule="nonzero"/></g></g></g><g clip-path="url(#404a473ae8)"><g clip-path="url(#2f8471e116)"><g clip-path="url(#f43c900d1f)"><path fill="#ff7403" d="M 253.257812 209.628906 C 245.503906 209.277344 237.558594 206.808594 230.15625 209.097656 C 221.796875 211.695312 216.414062 219.644531 212.03125 227.226562 C 208.5 233.324219 204.953125 239.871094 199.324219 244.304688 C 193.941406 248.578125 187.542969 246.199219 184.46875 240.191406 C 182.449219 236.273438 181.800781 231.75 179.71875 227.863281 C 177.617188 223.9375 173.519531 222.285156 169.246094 222.136719 C 164.957031 221.9375 161.003906 224.605469 156.671875 223.730469 C 154.488281 223.25 152.722656 222.0625 151.675781 220.417969 C 151.625 220.5625 151.582031 220.703125 151.539062 220.804688 C 150.007812 225.105469 152.707031 229.109375 157.160156 230.039062 C 161.46875 230.953125 165.429688 228.289062 169.726562 228.445312 C 173.992188 228.636719 178.089844 230.289062 180.1875 234.21875 C 182.269531 238.109375 182.917969 242.628906 184.9375 246.539062 C 188.019531 252.515625 194.414062 254.925781 199.796875 250.664062 C 205.433594 246.179688 208.96875 239.640625 212.507812 233.542969 C 216.890625 225.960938 222.269531 218.042969 230.625 215.445312 C 238.039062 213.125 245.980469 215.59375 253.730469 215.976562 C 261.488281 216.328125 270.847656 213.023438 272.144531 205.359375 C 272.484375 203.332031 272.210938 201.414062 271.558594 199.582031 C 269.910156 206.847656 260.820312 209.984375 253.257812 209.628906 " fill-opacity="1" fill-rule="nonzero"/></g></g></g><g clip-path="url(#37058fccc3)"><g clip-path="url(#5290f93b82)"><g clip-path="url(#77da79939b)"><path fill="#ff7403" d="M 126.609375 187.773438 C 126.90625 186.703125 127.113281 185.628906 127.070312 184.539062 C 126.757812 175.386719 111.421875 179.269531 106.007812 176.628906 C 103.816406 175.554688 102.1875 173.609375 101.300781 171.324219 C 100.210938 175.742188 102.34375 180.949219 106.476562 182.976562 C 111.136719 185.253906 123.152344 182.699219 126.609375 187.773438 " fill-opacity="1" fill-rule="nonzero"/></g></g></g><g clip-path="url(#9dbd093f2e)"><g clip-path="url(#e5f30e7acd)"><g clip-path="url(#db8c05f0a5)"><path fill="#ff7403" d="M 287.746094 179.636719 C 286.167969 185.003906 281.398438 188.320312 277.109375 187.042969 C 272.8125 185.800781 270.621094 180.40625 272.207031 175.042969 C 273.792969 169.667969 278.554688 166.347656 282.84375 167.625 C 287.140625 168.871094 289.332031 174.261719 287.746094 179.636719 " fill-opacity="1" fill-rule="nonzero"/></g></g></g><g clip-path="url(#f05a0ab75a)"><g clip-path="url(#2ef7c885d5)"><g clip-path="url(#5882961ac4)"><path fill="#ff7403" d="M 278.335938 182.878906 C 274.625 181.78125 272.476562 177.605469 272.996094 173.015625 C 272.675781 173.671875 272.410156 174.332031 272.207031 175.042969 C 270.613281 180.441406 272.8125 185.789062 277.101562 187.070312 C 281.394531 188.347656 286.164062 185.035156 287.746094 179.636719 C 287.960938 178.929688 288.101562 178.199219 288.179688 177.503906 C 286.132812 181.617188 282.058594 183.976562 278.335938 182.878906 " fill-opacity="1" fill-rule="nonzero"/></g></g></g><g clip-path="url(#4d5ee49a0f)"><g clip-path="url(#d539012249)"><g clip-path="url(#70079de240)"><path fill="#ff7403" d="M 134.527344 83.789062 C 134.242188 85.320312 132.773438 86.339844 131.230469 86.058594 C 129.691406 85.773438 128.671875 84.292969 128.957031 82.761719 C 129.242188 81.222656 130.71875 80.203125 132.257812 80.488281 C 133.800781 80.773438 134.808594 82.25 134.527344 83.789062 " fill-opacity="1" fill-rule="nonzero"/></g></g></g><g clip-path="url(#35f581fda2)"><g clip-path="url(#691ea3570f)"><g clip-path="url(#57ee0ccf90)"><path fill="#ff7403" d="M 131.550781 84.320312 C 130.320312 84.09375 129.421875 83.097656 129.261719 81.929688 C 129.117188 82.171875 129.003906 82.496094 128.953125 82.785156 C 128.667969 84.320312 129.6875 85.796875 131.226562 86.082031 C 132.757812 86.363281 134.238281 85.347656 134.519531 83.8125 C 134.574219 83.523438 134.585938 83.179688 134.546875 82.90625 C 133.96875 83.9375 132.785156 84.550781 131.550781 84.320312 " fill-opacity="1" fill-rule="nonzero"/></g></g></g><g clip-path="url(#fa71ec9a15)"><g clip-path="url(#c3cb737485)"><g clip-path="url(#4da7e45f49)"><path fill="#ff7403" d="M 253.308594 80.957031 C 252.574219 84.929688 248.78125 87.542969 244.835938 86.8125 C 240.878906 86.082031 238.265625 82.289062 239 78.316406 C 239.726562 74.386719 243.519531 71.773438 247.472656 72.503906 C 251.421875 73.234375 254.035156 77.027344 253.308594 80.957031 " fill-opacity="1" fill-rule="nonzero"/></g></g></g><g clip-path="url(#58a6661027)"><g clip-path="url(#ec268b4d2f)"><g clip-path="url(#6ce9a44844)"><path fill="#ff7403" d="M 253.128906 77.570312 C 251.789062 80.59375 248.535156 82.390625 245.160156 81.769531 C 242.371094 81.253906 240.257812 79.230469 239.507812 76.695312 C 239.277344 77.222656 239.101562 77.757812 239 78.308594 C 238.269531 82.28125 240.882812 86.066406 244.835938 86.796875 C 248.785156 87.523438 252.578125 84.921875 253.308594 80.949219 C 253.519531 79.804688 253.441406 78.652344 253.128906 77.570312 " fill-opacity="1" fill-rule="nonzero"/></g></g></g><g clip-path="url(#16683b9ffc)"><g clip-path="url(#31a9cfdf0b)"><g clip-path="url(#069476d7ea)"><path fill="#ff7403" d="M 331.070312 117.179688 C 330.652344 119.453125 328.464844 120.941406 326.179688 120.519531 C 323.902344 120.101562 322.390625 117.925781 322.808594 115.65625 C 323.234375 113.347656 325.421875 111.855469 327.699219 112.277344 C 329.984375 112.699219 331.496094 114.871094 331.070312 117.179688 " fill-opacity="1" fill-rule="nonzero"/></g></g></g><g clip-path="url(#142ddecbc0)"><g clip-path="url(#068b6a2dc3)"><g clip-path="url(#ff36ac5902)"><path fill="#ff7403" d="M 330.960938 115.226562 C 330.195312 116.976562 328.3125 117.988281 326.367188 117.628906 C 324.761719 117.335938 323.546875 116.171875 323.101562 114.722656 C 322.972656 115 322.871094 115.324219 322.8125 115.648438 C 322.390625 117.917969 323.894531 120.132812 326.171875 120.554688 C 328.460938 120.976562 330.652344 119.445312 331.070312 117.171875 C 331.191406 116.515625 331.152344 115.832031 330.960938 115.226562 " fill-opacity="1" fill-rule="nonzero"/></g></g></g><g clip-path="url(#554e0c4825)"><g clip-path="url(#7ef33f897a)"><g clip-path="url(#da4ef2565b)"><path fill="#ff7403" d="M 263.648438 116.597656 C 263.230469 118.859375 261.039062 120.382812 258.761719 119.960938 C 256.484375 119.542969 254.972656 117.335938 255.386719 115.074219 C 255.808594 112.800781 258.007812 111.28125 260.285156 111.699219 C 262.5625 112.121094 264.066406 114.328125 263.648438 116.597656 " fill-opacity="1" fill-rule="nonzero"/></g></g></g><g clip-path="url(#d164bcac13)"><g clip-path="url(#2fb363fe6d)"><g clip-path="url(#aa3092cdb9)"><path fill="#ff7403" d="M 263.546875 114.648438 C 262.773438 116.394531 260.894531 117.445312 258.941406 117.085938 C 257.34375 116.789062 256.117188 115.617188 255.679688 114.136719 C 255.558594 114.417969 255.449219 114.738281 255.390625 115.0625 C 254.964844 117.375 256.484375 119.542969 258.761719 119.960938 C 261.039062 120.382812 263.222656 118.898438 263.652344 116.589844 C 263.773438 115.933594 263.730469 115.246094 263.546875 114.648438 " fill-opacity="1" fill-rule="nonzero"/></g></g></g><g clip-path="url(#27607719d5)"><g clip-path="url(#e4f700d559)"><g clip-path="url(#664b552871)"><path fill="#ff7403" d="M 93.433594 175.757812 C 93.015625 178.027344 90.828125 179.527344 88.550781 179.109375 C 86.261719 178.6875 84.761719 176.507812 85.179688 174.238281 C 85.605469 171.933594 87.785156 170.433594 90.070312 170.855469 C 92.351562 171.277344 93.859375 173.457031 93.433594 175.757812 " fill-opacity="1" fill-rule="nonzero"/></g></g></g><g clip-path="url(#076a0fa59a)"><g clip-path="url(#ef5f28bbcf)"><g clip-path="url(#a65dc9c5f3)"><path fill="#ff7403" d="M 93.324219 173.800781 C 92.5625 175.523438 90.683594 176.59375 88.726562 176.230469 C 87.121094 175.9375 85.902344 174.78125 85.464844 173.28125 C 85.332031 173.59375 85.242188 173.914062 85.179688 174.238281 C 84.761719 176.507812 86.257812 178.71875 88.542969 179.140625 C 90.820312 179.558594 93.015625 178.027344 93.433594 175.757812 C 93.558594 175.078125 93.511719 174.433594 93.324219 173.800781 " fill-opacity="1" fill-rule="nonzero"/></g></g></g><g clip-path="url(#3206293651)"><g clip-path="url(#48ced7a5bd)"><g clip-path="url(#354b65b346)"><path fill="#ff7403" d="M 221.769531 258.09375 C 221.347656 260.375 219.164062 261.855469 216.886719 261.4375 C 214.601562 261.015625 213.089844 258.847656 213.507812 256.570312 C 213.929688 254.285156 216.121094 252.769531 218.40625 253.191406 C 220.683594 253.613281 222.191406 255.808594 221.769531 258.09375 " fill-opacity="1" fill-rule="nonzero"/></g></g></g><g clip-path="url(#d127281f56)"><g clip-path="url(#f1a96b2112)"><g clip-path="url(#7438859ec6)"><path fill="#ff7403" d="M 221.675781 256.109375 C 220.902344 257.84375 219.023438 258.894531 217.070312 258.535156 C 215.464844 258.238281 214.25 257.058594 213.804688 255.609375 C 213.6875 255.882812 213.585938 256.199219 213.519531 256.554688 C 213.105469 258.800781 214.609375 261 216.890625 261.417969 C 219.167969 261.839844 221.359375 260.324219 221.773438 258.078125 C 221.898438 257.398438 221.855469 256.726562 221.675781 256.109375 " fill-opacity="1" fill-rule="nonzero"/></g></g></g><g clip-path="url(#ecc1d7fe64)"><g clip-path="url(#8a625b2dc7)"><g clip-path="url(#33dda06f0e)"><path fill="#ff7403" d="M 75.925781 88.460938 C 75.40625 91.273438 72.726562 93.125 69.929688 92.609375 C 67.140625 92.097656 65.289062 89.40625 65.808594 86.59375 C 66.320312 83.820312 69.007812 81.972656 71.796875 82.484375 C 74.59375 83 76.4375 85.6875 75.925781 88.460938 " fill-opacity="1" fill-rule="nonzero"/></g></g></g><g clip-path="url(#a269d9ea92)"><g clip-path="url(#deb41b6122)"><g clip-path="url(#aceb2dd079)"><path fill="#ff7403" d="M 70.863281 90.628906 C 68.191406 90.4375 66.152344 88.21875 66.101562 85.601562 C 65.972656 85.921875 65.875 86.238281 65.808594 86.601562 C 65.289062 89.414062 67.140625 92.097656 69.929688 92.609375 C 72.726562 93.125 75.40625 91.28125 75.921875 88.46875 C 75.984375 88.144531 76.019531 87.773438 76.007812 87.429688 C 75.191406 89.433594 73.148438 90.789062 70.863281 90.628906 " fill-opacity="1" fill-rule="nonzero"/></g></g></g><g clip-path="url(#60861d538d)"><g clip-path="url(#f43693b0f5)"><g clip-path="url(#36620b23d6)"><path fill="#ff7403" d="M 102.871094 223.476562 C 102.683594 224.484375 101.714844 225.152344 100.695312 224.960938 C 99.671875 224.773438 98.996094 223.800781 99.183594 222.796875 C 99.371094 221.769531 100.351562 221.09375 101.375 221.28125 C 102.394531 221.46875 103.0625 222.449219 102.871094 223.476562 " fill-opacity="1" fill-rule="nonzero"/></g></g></g><g clip-path="url(#c81aa3a411)"><g clip-path="url(#cc98b38553)"><g clip-path="url(#4deff44031)"><path fill="#ff7403" d="M 100.855469 224.09375 C 99.988281 223.933594 99.363281 223.234375 99.320312 222.371094 C 99.261719 222.511719 99.210938 222.652344 99.183594 222.789062 C 98.992188 223.828125 99.667969 224.804688 100.6875 224.996094 C 101.710938 225.183594 102.679688 224.507812 102.871094 223.46875 C 102.898438 223.332031 102.910156 223.183594 102.894531 223.03125 C 102.546875 223.820312 101.722656 224.253906 100.855469 224.09375 " fill-opacity="1" fill-rule="nonzero"/></g></g></g><g clip-path="url(#92ce3620f4)"><g clip-path="url(#f57b48d8ce)"><g clip-path="url(#9dc8eaac19)"><path fill="#ff7403" d="M 102.90625 104.839844 C 101.78125 110.933594 95.933594 114.953125 89.855469 113.832031 C 83.765625 112.707031 79.738281 106.867188 80.863281 100.773438 C 81.988281 94.675781 87.832031 90.65625 93.921875 91.78125 C 100 92.902344 104.03125 98.742188 102.90625 104.839844 " fill-opacity="1" fill-rule="nonzero"/></g></g></g><g clip-path="url(#a5e38110fb)"><g clip-path="url(#1d19588c02)"><g clip-path="url(#01d547c17e)"><path fill="#ff7403" d="M 90.828125 108.554688 C 85.648438 107.597656 81.976562 103.234375 81.679688 98.199219 C 81.316406 98.996094 81.035156 99.847656 80.863281 100.765625 C 79.742188 106.851562 83.765625 112.714844 89.851562 113.839844 C 95.933594 114.960938 101.78125 110.917969 102.90625 104.832031 C 103.074219 103.914062 103.113281 103.015625 103.058594 102.140625 C 100.988281 106.738281 96 109.507812 90.828125 108.554688 " fill-opacity="1" fill-rule="nonzero"/></g></g></g><g clip-path="url(#cf2f7266ff)"><g clip-path="url(#8396f73137)"><g clip-path="url(#1270bd4b67)"><path fill="#ff7403" d="M 309.890625 139.605469 C 304.046875 141.625 298.203125 140.085938 296.835938 136.140625 C 295.472656 132.214844 299.105469 127.371094 304.953125 125.347656 C 310.800781 123.324219 316.652344 124.859375 318.011719 128.8125 C 319.375 132.734375 315.738281 137.582031 309.890625 139.605469 " fill-opacity="1" fill-rule="nonzero"/></g></g></g><g clip-path="url(#1057ad094e)"><g clip-path="url(#3e72ec1dc4)"><g clip-path="url(#91de5eb588)"><path fill="#ff7403" d="M 301.898438 134.40625 C 300.738281 131.058594 303.195312 127.09375 307.558594 124.722656 C 306.695312 124.863281 305.816406 125.078125 304.949219 125.371094 C 299.101562 127.394531 295.464844 132.238281 296.824219 136.195312 C 298.195312 140.113281 304.035156 141.683594 309.886719 139.628906 C 310.761719 139.335938 311.582031 138.953125 312.339844 138.5625 C 307.464844 139.367188 303.054688 137.765625 301.898438 134.40625 " fill-opacity="1" fill-rule="nonzero"/></g></g></g><g clip-path="url(#cbc6eec895)"><g clip-path="url(#c19599920d)"><g clip-path="url(#2423b6f2b6)"><path fill="#ff7403" d="M 205.328125 68.761719 C 204.976562 70.675781 203.121094 71.96875 201.191406 71.609375 C 199.261719 71.253906 197.988281 69.386719 198.34375 67.472656 C 198.695312 65.558594 200.550781 64.265625 202.480469 64.625 C 204.410156 64.980469 205.683594 66.847656 205.328125 68.761719 " fill-opacity="1" fill-rule="nonzero"/></g></g></g><g clip-path="url(#8986130238)"><g clip-path="url(#74d7a1dfc1)"><g clip-path="url(#bb16248452)"><path fill="#ff7403" d="M 201.5 69.941406 C 199.863281 69.640625 198.703125 68.25 198.597656 66.671875 C 198.488281 66.914062 198.390625 67.207031 198.335938 67.496094 C 197.984375 69.410156 199.257812 71.28125 201.1875 71.636719 C 203.117188 71.992188 204.972656 70.699219 205.324219 68.785156 C 205.378906 68.496094 205.394531 68.1875 205.375 67.921875 C 204.726562 69.363281 203.136719 70.242188 201.5 69.941406 " fill-opacity="1" fill-rule="nonzero"/></g></g></g><g clip-path="url(#f252f3e765)"><g clip-path="url(#047870ff4d)"><g clip-path="url(#c1c4968306)"><path fill="#ff7403" d="M 89.164062 154.878906 C 88.261719 159.765625 83.574219 163.007812 78.691406 162.109375 C 73.804688 161.207031 70.582031 156.503906 71.484375 151.617188 C 72.382812 146.738281 77.066406 143.519531 81.957031 144.421875 C 86.835938 145.320312 90.0625 150 89.164062 154.878906 " fill-opacity="1" fill-rule="nonzero"/></g></g></g><g clip-path="url(#0631b53447)"><g clip-path="url(#3cab35cd7d)"><g clip-path="url(#8eafdb4e8b)"><path fill="#ff7403" d="M 79.472656 157.878906 C 75.316406 157.109375 72.371094 153.609375 72.136719 149.574219 C 71.839844 150.222656 71.617188 150.894531 71.476562 151.65625 C 70.578125 156.527344 73.804688 161.199219 78.695312 162.101562 C 83.574219 163 88.257812 159.789062 89.15625 154.917969 C 89.296875 154.15625 89.328125 153.449219 89.289062 152.738281 C 87.621094 156.421875 83.625 158.644531 79.472656 157.878906 " fill-opacity="1" fill-rule="nonzero"/></g></g></g><g clip-path="url(#cc354fd328)"><g clip-path="url(#806c2fd7fb)"><g clip-path="url(#89c40001a9)"><path fill="#ff7403" d="M 177.511719 255.730469 C 177.15625 257.652344 175.300781 258.9375 173.363281 258.578125 C 171.441406 258.222656 170.167969 256.363281 170.523438 254.441406 C 170.875 252.519531 172.730469 251.234375 174.652344 251.589844 C 176.589844 251.949219 177.863281 253.808594 177.511719 255.730469 " fill-opacity="1" fill-rule="nonzero"/></g></g></g><g clip-path="url(#9cbed0f899)"><g clip-path="url(#0eacf1d6e2)"><g clip-path="url(#55bf8064a4)"><path fill="#ff7403" d="M 173.667969 256.933594 C 172.03125 256.632812 170.867188 255.242188 170.777344 253.640625 C 170.652344 253.914062 170.574219 254.15625 170.523438 254.441406 C 170.160156 256.402344 171.4375 258.257812 173.355469 258.609375 C 175.285156 258.96875 177.140625 257.691406 177.5 255.730469 C 177.554688 255.445312 177.558594 255.1875 177.546875 254.890625 C 176.890625 256.355469 175.3125 257.238281 173.667969 256.933594 " fill-opacity="1" fill-rule="nonzero"/></g></g></g><g clip-path="url(#9b20ff6d62)"><g clip-path="url(#94df64e89e)"><g clip-path="url(#0aea040ed9)"><path fill="#ff7403" d="M 128.191406 228.125 C 127.308594 232.914062 122.710938 236.066406 117.929688 235.183594 C 113.144531 234.300781 109.976562 229.71875 110.859375 224.925781 C 111.746094 220.128906 116.34375 216.976562 121.125 217.859375 C 125.90625 218.742188 129.078125 223.324219 128.191406 228.125 " fill-opacity="1" fill-rule="nonzero"/></g></g></g><g clip-path="url(#7b4f955446)"><g clip-path="url(#af351afecc)"><g clip-path="url(#1f9a21d356)"><path fill="#ff7403" d="M 118.695312 231.03125 C 114.625 230.28125 111.734375 226.863281 111.5 222.90625 C 111.214844 223.558594 110.992188 224.214844 110.859375 224.933594 C 109.976562 229.726562 113.144531 234.300781 117.929688 235.183594 C 122.710938 236.066406 127.308594 232.921875 128.191406 228.132812 C 128.324219 227.410156 128.351562 226.71875 128.3125 226.007812 C 126.683594 229.621094 122.765625 231.785156 118.695312 231.03125 " fill-opacity="1" fill-rule="nonzero"/></g></g></g><g clip-path="url(#d4694ad6bc)"><g clip-path="url(#cfe25b81d9)"><g clip-path="url(#10c503005d)"><path fill="#ff7403" d="M 289.402344 217.777344 C 288.777344 221.160156 285.84375 223.484375 282.867188 222.9375 C 279.875 222.382812 277.972656 219.167969 278.59375 215.785156 C 279.21875 212.398438 282.148438 210.070312 285.140625 210.621094 C 288.113281 211.171875 290.027344 214.390625 289.402344 217.777344 " fill-opacity="1" fill-rule="nonzero"/></g></g></g><g clip-path="url(#8761f450b7)"><g clip-path="url(#8c3d460242)"><g clip-path="url(#50ddf08ed1)"><path fill="#ff7403" d="M 283.402344 220 C 280.863281 219.53125 279.113281 217.164062 279.027344 214.355469 C 278.835938 214.808594 278.683594 215.300781 278.59375 215.800781 C 277.96875 219.183594 279.871094 222.402344 282.855469 222.949219 C 285.839844 223.5 288.773438 221.175781 289.398438 217.796875 C 289.492188 217.292969 289.519531 216.777344 289.507812 216.289062 C 288.425781 218.882812 285.9375 220.46875 283.402344 220 " fill-opacity="1" fill-rule="nonzero"/></g></g></g><g clip-path="url(#6754c2df6a)"><g clip-path="url(#5477acd930)"><g clip-path="url(#6202a2e988)"><path fill="#ff7403" d="M 270.53125 73.523438 C 270.171875 75.476562 268.492188 76.800781 266.78125 76.484375 C 265.070312 76.171875 263.976562 74.332031 264.335938 72.378906 C 264.699219 70.425781 266.375 69.101562 268.085938 69.417969 C 269.796875 69.734375 270.890625 71.570312 270.53125 73.523438 " fill-opacity="1" fill-rule="nonzero"/></g></g></g><g clip-path="url(#88d009a070)"><g clip-path="url(#6a3617d278)"><g clip-path="url(#7645b368c9)"><path fill="#ff7403" d="M 267.089844 74.808594 C 265.632812 74.539062 264.628906 73.171875 264.578125 71.570312 C 264.472656 71.820312 264.386719 72.105469 264.335938 72.394531 C 263.972656 74.351562 265.070312 76.1875 266.777344 76.503906 C 268.488281 76.816406 270.167969 75.492188 270.527344 73.539062 C 270.582031 73.246094 270.601562 72.949219 270.59375 72.679688 C 269.96875 74.15625 268.542969 75.074219 267.089844 74.808594 " fill-opacity="1" fill-rule="nonzero"/></g></g></g><g clip-path="url(#098784152a)"><g clip-path="url(#e053c0bf05)"><g clip-path="url(#eee2527ede)"><path fill="#ff7403" d="M 204.742188 272.65625 C 204.011719 276.605469 200.21875 279.214844 196.261719 278.488281 C 192.316406 277.757812 189.703125 273.964844 190.433594 270.019531 C 191.160156 266.0625 194.953125 263.449219 198.902344 264.179688 C 202.859375 264.910156 205.46875 268.703125 204.742188 272.65625 " fill-opacity="1" fill-rule="nonzero"/></g></g></g><g clip-path="url(#e8ca06f31a)"><g clip-path="url(#c89d1993f7)"><g clip-path="url(#d7991289f8)"><path fill="#ff7403" d="M 196.683594 276.207031 C 193.117188 275.550781 190.644531 272.414062 190.730469 268.898438 C 190.609375 269.246094 190.503906 269.628906 190.433594 270.019531 C 189.703125 273.964844 192.316406 277.757812 196.261719 278.488281 C 200.21875 279.214844 204.011719 276.605469 204.742188 272.65625 C 204.8125 272.269531 204.851562 271.875 204.859375 271.507812 C 203.6875 274.820312 200.25 276.867188 196.683594 276.207031 " fill-opacity="1" fill-rule="nonzero"/></g></g></g><g clip-path="url(#07aa8613b5)"><g clip-path="url(#8e11ea2d9e)"><g clip-path="url(#5f57e86ac5)"><path fill="#ff7403" d="M 232.460938 227.089844 C 225.789062 230.980469 222.578125 237.890625 225.28125 242.507812 C 227.976562 247.160156 233.429688 242.558594 240.976562 240.949219 C 250.265625 238.949219 252.128906 233.023438 249.417969 228.398438 C 246.714844 223.785156 239.121094 223.199219 232.460938 227.089844 " fill-opacity="1" fill-rule="nonzero"/></g></g></g><g clip-path="url(#9b0115ac13)"><g clip-path="url(#0c9d638bac)"><g clip-path="url(#125d248904)"><path fill="#ff7403" d="M 240.949219 236.183594 C 233.402344 237.792969 227.960938 242.386719 225.265625 237.742188 C 225.015625 237.328125 224.8125 236.878906 224.65625 236.441406 C 224.074219 238.59375 224.234375 240.738281 225.277344 242.523438 C 227.980469 247.136719 233.429688 242.542969 240.980469 240.933594 C 249.277344 239.171875 251.648438 234.226562 250.121094 229.90625 C 249.128906 232.613281 246.246094 235.050781 240.949219 236.183594 " fill-opacity="1" fill-rule="nonzero"/></g></g></g></svg>